<?xml version="1.0" encoding="UTF-8" standalone="no"?>
<svg width="18px" height="18px" viewBox="0 0 18 18" version="1.1" xmlns="http://www.w3.org/2000/svg" xmlns:xlink="http://www.w3.org/1999/xlink">
    <!-- Generator: Sketch 3.8.3 (29802) - http://www.bohemiancoding.com/sketch -->
    <title>Shape</title>
    <desc>Created with Sketch.</desc>
    <defs></defs>
    <g id="Symbols" stroke="none" stroke-width="1" fill="none" fill-rule="evenodd">
        <g id="Filtro-/-Filtro-&gt;-Tablet" transform="translate(-16.000000, -1485.000000)" fill="#2189E0">
            <g id="Tipo" transform="translate(0.000000, 1448.000000)">
                <g id="Opcoes" transform="translate(16.000000, 36.000000)">
                    <path d="M16,1 L2,1 C0.9,1 0,1.9 0,3 L0,17 C0,18.1 0.9,19 2,19 L16,19 C17.1,19 18,18.1 18,17 L18,3 C18,1.9 17.1,1 16,1 L16,1 Z M7,15 L2,10.1923077 L3.4,8.84615385 L7,12.3076923 L14.6,5 L16,6.34615385 L7,15 L7,15 Z" id="Shape"></path>
                </g>
            </g>
        </g>
    </g>
</svg>