<?xml version="1.0" encoding="utf-8"?>
<!-- Generator: Adobe Illustrator 16.0.0, SVG Export Plug-In . SVG Version: 6.00 Build 0)  -->
<!DOCTYPE svg PUBLIC "-//W3C//DTD SVG 1.1//EN" "http://www.w3.org/Graphics/SVG/1.1/DTD/svg11.dtd">
<svg version="1.1" id="Capa_1" xmlns="http://www.w3.org/2000/svg" xmlns:xlink="http://www.w3.org/1999/xlink" x="0px" y="0px"
	 width="13.709px" height="13.516px" viewBox="1.125 -3.484 13.709 13.516" enable-background="new 1.125 -3.484 13.709 13.516"
	 xml:space="preserve">
<title>Group</title>
<desc>Created with Sketch.</desc>
<g id="Symbols">
	<g>
		<g id="Filtro-_x2F_-Filtro-_x3E_-Tablet_8_" transform="translate(-175.000000, -141.000000)">
			<g id="Polegadas_8_" transform="translate(1.000000, 138.000000)">
				<g id="Group_8_" transform="translate(174.000000, 2.000000)">
					<path id="plus-copy-2_8_" fill="#999999" d="M10.869-0.946c0.582-0.583,1.525-0.583,2.107,0c0.582,0.583,0.582,1.526,0,2.109
						L9.814,4.324l3.162,3.161c0.582,0.581,0.582,1.525,0,2.108c-0.582,0.584-1.525,0.582-2.107,0L7.707,6.432L4.546,9.594
						c-0.583,0.584-1.525,0.582-2.109-0.001c-0.583-0.582-0.583-1.458,0-2.107C3.948,6.01,5.598,4.324,5.598,4.324L2.437,1.162
						c-0.583-0.582-0.583-1.524,0-2.107c0.582-0.583,1.524-0.583,2.108,0l3.162,3.161L10.869-0.946z"/>
				</g>
			</g>
		</g>
	</g>
</g>
</svg>
