<?xml version="1.0" encoding="utf-8"?>
<!-- Generator: Adobe Illustrator 16.0.0, SVG Export Plug-In . SVG Version: 6.00 Build 0)  -->
<!DOCTYPE svg PUBLIC "-//W3C//DTD SVG 1.1//EN" "http://www.w3.org/Graphics/SVG/1.1/DTD/svg11.dtd">
<svg version="1.1" id="Capa_1" xmlns="http://www.w3.org/2000/svg" xmlns:xlink="http://www.w3.org/1999/xlink" x="0px" y="0px"
	 width="10px" height="10.031px" viewBox="0 0 10 10.031" enable-background="new 0 0 10 10.031" xml:space="preserve">
<title>Group</title>
<desc>Created with Sketch.</desc>
<g id="Symbols">
	<g id="Filtro-_x2F_-Filtro-_x3E_-Tablet" transform="translate(-175.000000, -141.000000)">
		<g id="Polegadas" transform="translate(1.000000, 138.000000)">
			<g id="Group" transform="translate(174.000000, 2.000000)">
				<path id="plus-copy-2" fill="#C3C3C3" d="M4,2c0-0.552,0.448-1,1-1s1,0.448,1,1v3h3c0.552,0,1,0.448,1,1S9.552,7,9,7H6v3
					c0,0.553-0.448,1-1,1s-0.968-0.416-1-1c0.016-1.416,0-3,0-3H1C0.447,7,0,6.552,0,6s0.448-1,1-1h3V2z"/>
			</g>
		</g>
	</g>
</g>
</svg>
