<?xml version="1.0" encoding="utf-8"?>
<!-- Generator: Adobe Illustrator 16.0.0, SVG Export Plug-In . SVG Version: 6.00 Build 0)  -->
<!DOCTYPE svg PUBLIC "-//W3C//DTD SVG 1.1//EN" "http://www.w3.org/Graphics/SVG/1.1/DTD/svg11.dtd">
<svg version="1.1" id="Capa_1" xmlns:sketch="http://www.bohemiancoding.com/sketch/ns"
	 xmlns="http://www.w3.org/2000/svg" xmlns:xlink="http://www.w3.org/1999/xlink" x="0px" y="0px" width="50px" height="31.4px"
	 viewBox="351 219.8 50 31.4" enable-background="new 351 219.8 50 31.4" xml:space="preserve">
<title>Slice 1</title>
<desc>Created with Sketch.</desc>
<g id="Page-1" sketch:type="MSPage">
	<g id="amex" sketch:type="MSLayerGroup">
		<path id="Rectangle-1" sketch:type="MSShapeGroup" fill="#2557D6" d="M353.667,219.8h44.667c1.473,0,2.667,1.194,2.667,2.667
			v26.066c0,1.473-1.194,2.667-2.667,2.667h-44.667c-1.473,0-2.667-1.194-2.667-2.667v-26.066
			C351,220.994,352.194,219.8,353.667,219.8z"/>
		<path id="Path" sketch:type="MSShapeGroup" fill="#FFFFFF" d="M351,234.546h2.402l0.542-1.301h1.212l0.54,1.301h4.725v-0.995
			l0.422,0.999h2.453l0.422-1.013v1.009h11.743l-0.005-2.135h0.227c0.159,0.005,0.206,0.02,0.206,0.282v1.854h6.073v-0.497
			c0.49,0.261,1.252,0.497,2.255,0.497h2.555l0.547-1.301h1.213l0.534,1.301h4.925v-1.236l0.745,1.236h3.946v-8.167h-3.905v0.965
			l-0.547-0.965h-4.007v0.965l-0.502-0.965h-5.413c-0.905,0-1.702,0.126-2.346,0.477v-0.477h-3.734v0.477
			c-0.41-0.362-0.968-0.477-1.588-0.477h-13.646l-0.916,2.109l-0.94-2.109h-4.298v0.965l-0.472-0.965h-3.666L351,230.262V234.546
			L351,234.546L351,234.546z M366.16,233.368h-1.441l-0.005-4.586l-2.039,4.586h-1.234l-2.043-4.59v4.59h-2.859l-0.54-1.306h-2.927
			l-0.545,1.306H351l2.517-5.856h2.088l2.391,5.544v-5.544h2.294l1.84,3.973l1.689-3.973h2.34L366.16,233.368L366.16,233.368
			L366.16,233.368z M355.519,230.846l-0.962-2.334l-0.957,2.334H355.519L355.519,230.846z M371.895,233.368h-4.695v-5.856h4.695
			v1.22h-3.29v1.055h3.211v1.201h-3.211v1.169h3.29V233.368L371.895,233.368z M378.512,229.089c0,0.934-0.626,1.416-0.99,1.561
			c0.308,0.116,0.57,0.322,0.695,0.493c0.198,0.291,0.232,0.551,0.232,1.074v1.15h-1.418l-0.005-0.738
			c0-0.353,0.034-0.859-0.222-1.141c-0.206-0.206-0.519-0.25-1.025-0.25h-1.509v2.13h-1.406v-5.856h3.233
			c0.718,0,1.247,0.019,1.702,0.281C378.245,228.054,378.512,228.436,378.512,229.089L378.512,229.089z M376.735,229.958
			c-0.193,0.117-0.422,0.121-0.696,0.121h-1.708v-1.301h1.731c0.245,0,0.5,0.011,0.667,0.105c0.183,0.085,0.295,0.267,0.295,0.518
			C377.024,229.658,376.917,229.864,376.735,229.958L376.735,229.958z M380.766,233.368h-1.434v-5.856h1.434V233.368
			L380.766,233.368z M397.415,233.368h-1.991l-2.665-4.395v4.395h-2.862l-0.547-1.306h-2.92l-0.531,1.306h-1.645
			c-0.683,0-1.548-0.15-2.038-0.648c-0.494-0.497-0.751-1.17-0.751-2.235c0-0.869,0.153-1.663,0.758-2.29
			c0.454-0.468,1.166-0.683,2.135-0.683h1.36v1.255h-1.332c-0.513,0-0.803,0.076-1.081,0.347c-0.24,0.247-0.404,0.713-0.404,1.327
			c0,0.627,0.125,1.08,0.387,1.375c0.216,0.232,0.609,0.302,0.979,0.302h0.631l1.981-4.605h2.105l2.38,5.539v-5.539h2.141
			l2.471,4.078v-4.078h1.439V233.368L397.415,233.368z M388.871,230.846l-0.973-2.334l-0.967,2.334H388.871L388.871,230.846z"/>
		<path id="path13" sketch:type="MSShapeGroup" fill="#FFFFFF" d="M400.997,242.718c-0.342,0.497-1.007,0.749-1.907,0.749h-2.715
			v-1.256h2.704c0.268,0,0.455-0.035,0.568-0.145c0.098-0.091,0.166-0.223,0.166-0.383c0-0.17-0.068-0.306-0.172-0.387
			c-0.102-0.09-0.25-0.13-0.495-0.13c-1.319-0.045-2.966,0.04-2.966-1.813c0-0.85,0.541-1.743,2.017-1.743h2.8v-1.166h-2.602
			c-0.785,0-1.355,0.188-1.759,0.479v-0.479h-3.848c-0.615,0-1.338,0.152-1.68,0.479v-0.479h-6.871v0.479
			c-0.547-0.393-1.47-0.479-1.896-0.479h-4.532v0.479c-0.433-0.417-1.394-0.479-1.98-0.479h-5.072l-1.161,1.251l-1.087-1.251h-7.577
			v8.173h7.435l1.196-1.271l1.127,1.271l4.583,0.004v-1.922h0.45c0.608,0.009,1.325-0.016,1.958-0.288v2.206h3.78v-2.13h0.182
			c0.233,0,0.256,0.01,0.256,0.241v1.889h11.482c0.729,0,1.491-0.186,1.913-0.523v0.523h3.642c0.758,0,1.498-0.105,2.062-0.377
			V242.718L400.997,242.718z M378.23,239.574c0,1.627-1.22,1.963-2.448,1.963h-1.754v1.965h-2.732l-1.73-1.939l-1.799,1.939h-5.568
			v-5.857h5.653l1.729,1.92l1.788-1.92h4.491C376.977,237.645,378.23,237.952,378.23,239.574L378.23,239.574z M367.055,242.27
			h-3.456v-1.165h3.086v-1.195h-3.086v-1.064h3.524l1.537,1.707L367.055,242.27L367.055,242.27z M372.624,242.94l-2.158-2.386
			l2.158-2.311V242.94L372.624,242.94z M375.815,240.336h-1.816v-1.491h1.833c0.507,0,0.86,0.206,0.86,0.718
			C376.691,240.069,376.355,240.336,375.815,240.336L375.815,240.336z M385.331,237.645h4.691v1.211h-3.291v1.065h3.211v1.195
			h-3.211v1.165l3.291,0.005v1.216h-4.691V237.645L385.331,237.645z M383.527,240.78c0.313,0.114,0.569,0.32,0.689,0.491
			c0.198,0.286,0.227,0.553,0.232,1.069v1.161h-1.411v-0.733c0-0.352,0.034-0.874-0.228-1.146c-0.205-0.209-0.519-0.26-1.031-0.26
			h-1.502v2.14h-1.412v-5.857h3.245c0.712,0,1.229,0.031,1.691,0.276c0.443,0.267,0.723,0.633,0.723,1.301
			C384.523,240.156,383.897,240.634,383.527,240.78L383.527,240.78z M382.733,240.039c-0.188,0.111-0.421,0.121-0.694,0.121h-1.707
			v-1.315h1.73c0.25,0,0.501,0.005,0.671,0.105c0.182,0.095,0.291,0.276,0.291,0.527
			C383.024,239.728,382.915,239.93,382.733,240.039L382.733,240.039z M395.422,240.412c0.274,0.282,0.421,0.639,0.421,1.241
			c0,1.26-0.791,1.849-2.208,1.849h-2.738v-1.256h2.728c0.267,0,0.455-0.035,0.574-0.146c0.097-0.091,0.166-0.222,0.166-0.382
			c0-0.171-0.075-0.307-0.172-0.388c-0.107-0.089-0.256-0.13-0.501-0.13c-1.314-0.045-2.96,0.041-2.96-1.813
			c0-0.85,0.535-1.744,2.009-1.744h2.818v1.247h-2.578c-0.256,0-0.422,0.009-0.563,0.105c-0.154,0.095-0.211,0.235-0.211,0.421
			c0,0.222,0.131,0.372,0.308,0.437c0.148,0.052,0.308,0.066,0.547,0.066l0.757,0.021
			C394.58,239.96,395.104,240.092,395.422,240.412L395.422,240.412z M401,238.845h-2.562c-0.256,0-0.426,0.01-0.569,0.105
			c-0.148,0.095-0.205,0.235-0.205,0.422c0,0.221,0.125,0.371,0.308,0.436c0.148,0.052,0.308,0.066,0.541,0.066l0.762,0.021
			c0.77,0.02,1.282,0.15,1.596,0.472c0.057,0.045,0.091,0.095,0.13,0.145V238.845L401,238.845z"/>
	</g>
</g>
</svg>
