<?xml version="1.0" encoding="utf-8"?>
<!-- Generator: Adobe Illustrator 16.0.0, SVG Export Plug-In . SVG Version: 6.00 Build 0)  -->
<!DOCTYPE svg PUBLIC "-//W3C//DTD SVG 1.1//EN" "http://www.w3.org/Graphics/SVG/1.1/DTD/svg11.dtd">
<svg version="1.1" id="Capa_1" xmlns:sketch="http://www.bohemiancoding.com/sketch/ns"
	 xmlns="http://www.w3.org/2000/svg" xmlns:xlink="http://www.w3.org/1999/xlink" x="0px" y="0px" width="31.128px" height="31.4px"
	 viewBox="362.04 220.743 31.128 31.4" enable-background="new 362.04 220.743 31.128 31.4" xml:space="preserve">
<title>Slice 1</title>
<desc>Created with Sketch.</desc>
<g>
	<path fill="#E81F29" d="M383.722,236.574c-1.516,1.95-2.922,3.76-4.33,5.568c-0.166,0.214-0.412,0.254-0.659,0.274
		c-3.61,0.299-7.158,0.102-10.529-1.394c-3.058-1.356-5.134-3.535-5.894-6.892c-1.043-4.61,0.986-9.048,5.216-11.149
		c3.794-1.885,7.825-2.478,12.028-2.159c2.802,0.213,5.495,0.785,8.001,2.094c3.652,1.909,5.459,4.998,5.571,9.053
		c0.09,3.221,0.003,6.446,0.032,9.668c0.006,0.618-0.172,0.761-0.779,0.747c-2.086-0.048-4.175-0.051-6.261-0.012
		c-0.681,0.012-0.881-0.169-0.875-0.87c0.034-4.451,0-8.902,0.034-13.353c0.006-0.755-0.104-1.04-0.971-1.029
		c-4.327,0.055-8.656,0.043-12.984,0.006c-0.702-0.006-0.86,0.186-0.849,0.863c0.042,2.578,0.038,5.157,0.002,7.735
		c-0.009,0.635,0.146,0.826,0.804,0.82c3.959-0.032,7.92-0.016,11.879-0.015C383.276,236.532,383.396,236.549,383.722,236.574z"/>
	<path fill="#101010" d="M369.431,247.869c0.51-0.938,1.295-1.077,2.194-0.845c0.382,0.099,0.71,0.008,1.051-0.146
		c0.118-0.053,0.325-0.072,0.38,0.122c0.038,0.137,0.076,0.376-0.085,0.402c-0.533,0.086-0.346,0.396-0.327,0.733
		c0.047,0.817-0.508,1.263-1.516,1.32c-0.245,0.015-0.66-0.151-0.667,0.25c-0.007,0.388,0.401,0.265,0.657,0.284
		c0.365,0.028,0.738,0.006,1.096,0.073c0.467,0.088,0.766,0.393,0.756,0.891c-0.009,0.453-0.165,0.83-0.658,0.992
		c-0.818,0.27-1.625,0.261-2.434-0.026c-0.363-0.128-0.686-0.563-0.511-0.741c0.532-0.543,0.184-1.221,0.407-1.812
		c0.147-0.389-0.204-0.991-0.402-1.47c-0.064-0.153-0.336-0.006-0.494,0.054c-0.503,0.188-0.803,0.531-0.782,1.106
		c0.015,0.398-0.015,0.799,0.007,1.196c0.021,0.394-0.184,0.442-0.51,0.442c-0.32,0-0.434-0.116-0.43-0.43
		c0.011-0.92-0.001-1.841,0.008-2.762c0.002-0.188-0.1-0.492,0.252-0.463c0.23,0.02,0.611-0.201,0.662,0.232
		c0.047,0.407,0.12,0.271,0.342,0.103C369.188,246.799,369.197,246.811,369.431,247.869z M371.777,248.163
		c-0.13-0.278-0.234-0.627-0.648-0.629c-0.418-0.001-0.698,0.22-0.712,0.661c-0.012,0.4,0.231,0.629,0.61,0.658
		C371.473,248.89,371.664,248.585,371.777,248.163z M371.175,250.72c-0.365,0.022-0.859-0.296-0.929,0.275
		c-0.053,0.437,0.383,0.509,0.728,0.463c0.407-0.056,1.094,0.273,1.126-0.389C372.128,250.481,371.461,250.87,371.175,250.72z"/>
	<path fill="#101010" d="M389.615,247.848c-0.849,0.106-1.326,0.5-1.249,1.425c0.028,0.335-0.008,0.675,0.007,1.012
		c0.015,0.329-0.144,0.421-0.446,0.409c-0.262-0.011-0.491-0.002-0.489-0.366c0.008-0.981,0.003-1.964,0.001-2.945
		c0-0.202,0.031-0.386,0.289-0.345c0.217,0.034,0.532-0.164,0.626,0.178c0.065,0.237,0.025,0.468,0.329,0.146
		c0.696-0.738,0.926-0.329,0.951,0.631c0.582-1.087,1.342-1.221,2.24-0.829c0.196-0.38,0.087-0.752,0.109-1.111
		c0.021-0.323-0.088-0.667,0.472-0.67c0.511-0.003,0.518,0.253,0.515,0.625c-0.012,1.351,0.002,2.701-0.01,4.051
		c-0.003,0.242,0.114,0.699-0.309,0.604c-0.643-0.146-1.241,0.057-1.852,0.043c-0.726-0.015-1.296-1.045-1.239-2.001
		C389.577,248.435,389.748,248.18,389.615,247.848z M391.98,248.879c0.033-0.538,0.044-1.114-0.624-1.137
		c-0.687-0.021-0.661,0.574-0.678,1.07c-0.019,0.521,0.041,1.087,0.667,1.102C391.999,249.931,392.045,249.373,391.98,248.879z"/>
	<path fill="#101010" d="M362.411,250.605c0.491-1.529,0.986-3.058,1.469-4.589c0.118-0.375,0.324-0.507,0.733-0.497
		c0.4,0.01,0.594,0.114,0.717,0.511c0.408,1.319,0.867,2.623,1.281,3.94c0.068,0.217,0.377,0.557-0.025,0.688
		c-0.364,0.118-0.855,0.133-0.92-0.441c-0.095-0.835-0.663-0.784-1.266-0.775c-0.413,0.005-0.695,0.045-0.76,0.552
		C363.546,250.717,363.064,250.824,362.411,250.605z M365.139,248.634c-0.157-0.482-0.311-0.952-0.545-1.675
		c-0.227,0.737-0.372,1.208-0.521,1.693C364.442,248.721,364.77,248.737,365.139,248.634z"/>
	<path fill="#101010" d="M376.802,248.783c0-0.153-0.009-0.308,0.002-0.46c0.05-0.702-0.321-1.855,1.137-1.076
		c0.037,0.021,0.111-0.041,0.171-0.052c1.782-0.318,1.782-0.317,1.782,1.464c0,0.521-0.015,1.043,0.005,1.563
		c0.013,0.357-0.123,0.476-0.48,0.477c-0.363,0.001-0.484-0.135-0.475-0.483c0.016-0.582,0.014-1.165,0-1.747
		c-0.007-0.287,0.093-0.709-0.336-0.727c-0.419-0.019-0.771,0.218-0.787,0.713c-0.017,0.521-0.005,1.043-0.006,1.563
		c0,0.338,0.063,0.672-0.479,0.683c-0.585,0.011-0.541-0.343-0.535-0.723C376.807,249.58,376.802,249.182,376.802,248.783z"/>
	<path fill="#101010" d="M373.064,248.802c-0.005-1.135,0.555-1.806,1.565-1.876c0.932-0.064,1.587,0.494,1.722,1.417
		c0.069,0.473-0.046,0.698-0.561,0.658c-0.366-0.027-0.736-0.011-1.104-0.002c-0.207,0.005-0.479-0.078-0.587,0.125
		c-0.063,0.117,0.02,0.369,0.117,0.502c0.162,0.223,0.395,0.407,0.705,0.312c0.139-0.043,0.293-0.131,0.376-0.245
		c0.312-0.435,0.684-0.143,0.838,0.043c0.228,0.276-0.136,0.476-0.335,0.633c-0.554,0.438-1.165,0.503-1.802,0.184
		C373.375,250.239,373.067,249.653,373.064,248.802z M374.781,248.434c0.214-0.115,0.642,0.201,0.644-0.249
		c0.001-0.365-0.305-0.593-0.696-0.593c-0.357,0.001-0.634,0.227-0.636,0.546C374.091,248.646,374.547,248.325,374.781,248.434z"/>
	<path fill="#101010" d="M386.699,249.264c0,0.276-0.027,0.556,0.005,0.827c0.07,0.578-0.209,0.794-0.663,0.504
		c-0.33-0.211-0.491-0.028-0.728,0.054c-0.666,0.229-1.26,0.094-1.56-0.552c-0.319-0.688,0.076-1.186,0.681-1.495
		c0.295-0.15,0.641-0.197,0.957-0.311c0.172-0.063,0.497,0,0.396-0.35c-0.064-0.225-0.263-0.329-0.494-0.349
		c-0.33-0.028-0.574,0.145-0.832,0.324c-0.293,0.204-0.452-0.087-0.578-0.264c-0.162-0.229,0.101-0.325,0.232-0.399
		c0.617-0.347,1.28-0.455,1.932-0.143c0.579,0.278,0.642,0.845,0.637,1.417c-0.003,0.245-0.001,0.49-0.001,0.735
		C386.688,249.264,386.693,249.264,386.699,249.264z M385.54,248.86c-0.386,0.146-0.887,0.213-0.977,0.762
		c-0.05,0.303,0.192,0.431,0.465,0.403c0.44-0.045,0.847-0.161,0.836-0.731C385.86,249.096,385.913,248.847,385.54,248.86z"/>
	<path fill="#101010" d="M381.367,248.742c-0.017,0.409,0.036,0.808,0.39,1.063c0.424,0.307,0.641-0.053,0.902-0.311
		c0.217-0.213,0.438-0.046,0.62,0.099c0.197,0.156,0.096,0.321-0.03,0.467c-0.119,0.138-0.229,0.289-0.372,0.397
		c-0.617,0.471-1.506,0.354-2.059-0.257c-0.668-0.736-0.645-2.049,0.048-2.771c0.536-0.56,1.524-0.669,2.078-0.196
		c0.18,0.153,0.531,0.353,0.293,0.64c-0.148,0.179-0.45,0.229-0.753,0.089C381.674,247.585,381.373,247.81,381.367,248.742z"/>
</g>
</svg>
