<?xml version="1.0" encoding="utf-8"?>
<!-- Generator: Adobe Illustrator 16.0.0, SVG Export Plug-In . SVG Version: 6.00 Build 0)  -->
<!DOCTYPE svg PUBLIC "-//W3C//DTD SVG 1.1//EN" "http://www.w3.org/Graphics/SVG/1.1/DTD/svg11.dtd">
<svg version="1.1" id="Capa_1" xmlns:sketch="http://www.bohemiancoding.com/sketch/ns"
	 xmlns="http://www.w3.org/2000/svg" xmlns:xlink="http://www.w3.org/1999/xlink" x="0px" y="0px" width="29.538px" height="31.4px"
	 viewBox="360.315 219.53 29.538 31.4" enable-background="new 360.315 219.53 29.538 31.4" xml:space="preserve">
<title>Slice 1</title>
<desc>Created with Sketch.</desc>
<g>
	<path fill="#C0C2C4" d="M360.327,235.255c0,5.055,0.006,10.111-0.011,15.167c-0.001,0.43,0.117,0.509,0.523,0.509
		c9.49-0.013,18.98-0.013,28.471,0c0.42,0,0.545-0.077,0.544-0.528c-0.015-10.111-0.015-20.223,0-30.334
		c0.001-0.444-0.114-0.539-0.544-0.538c-9.505,0.014-19.01,0.013-28.515,0.002c-0.376,0-0.479,0.081-0.478,0.469
		C360.332,225.086,360.327,230.17,360.327,235.255z"/>
	<path fill="#04173C" d="M360.327,235.255c0-5.085,0.005-10.169-0.01-15.254c-0.001-0.389,0.102-0.47,0.478-0.469
		c9.505,0.011,19.01,0.012,28.515-0.002c0.43,0,0.545,0.094,0.544,0.538c-0.015,10.111-0.015,20.223,0,30.334
		c0.001,0.451-0.124,0.528-0.544,0.528c-9.49-0.013-18.981-0.013-28.471,0c-0.406,0-0.524-0.079-0.523-0.509
		C360.333,245.366,360.327,240.311,360.327,235.255z M374.427,223.279c-0.136,0.101-0.299,0.179-0.404,0.305
		c-0.762,0.914-1.692,1.656-2.526,2.497c-0.864,0.871-1.762,1.708-2.646,2.559c-0.874,0.841-1.738,1.694-2.629,2.517
		c-0.271,0.25-0.247,0.404,0.016,0.604c0.192,0.146,0.389,0.291,0.556,0.463c1.08,1.117,2.215,2.181,3.311,3.283
		c1.213,1.221,2.501,2.369,3.675,3.633c0.177,0.19,0.34,0.421,0.657,0.462c0-1.092-0.072-2.178,0.025-3.248
		c0.066-0.736-0.302-1.183-0.753-1.573c-1.167-1.009-2.234-2.123-3.366-3.168c-0.143-0.132-0.136-0.208,0.001-0.335
		c0.394-0.369,0.831-0.684,1.187-1.102c0.36-0.422,0.834-0.746,1.228-1.136c0.508-0.504,0.996-1.025,1.552-1.479
		c0.109-0.089,0.156-0.224,0.158-0.374c0.015-1.27,0.033-2.541,0.049-3.811C374.546,223.289,374.555,223.221,374.427,223.279z
		 M375.463,223.161c0,0.224,0.001,0.336,0,0.448c-0.015,1.062,0.146,2.125-0.029,3.186c-0.054,0.323,0.066,0.555,0.312,0.783
		c1.28,1.193,2.534,2.414,3.813,3.608c0.226,0.211,0.237,0.322,0.003,0.523c-0.532,0.454-1.056,0.926-1.545,1.419
		c-0.646,0.651-1.276,1.31-1.99,1.889c-0.291,0.236-0.478,0.527-0.468,0.949c0.025,1.111,0.006,2.224,0.012,3.336
		c0,0.104-0.066,0.252,0.073,0.307c0.138,0.054,0.202-0.094,0.266-0.174c0.546-0.693,1.225-1.255,1.847-1.871
		c0.808-0.799,1.655-1.56,2.452-2.364c1.159-1.17,2.317-2.341,3.531-3.452c0.315-0.289,0.251-0.382,0.011-0.612
		c-1.454-1.388-2.899-2.784-4.347-4.179C378.118,225.722,376.835,224.484,375.463,223.161z M373.184,247.165
		c0-0.001,0-0.002,0-0.002c0.766,0,1.531-0.002,2.297,0c0.338,0.002,0.663-0.063,0.966-0.205c0.771-0.362,0.978-1.199,0.461-1.821
		c-0.104-0.125-0.228-0.225-0.376-0.284c-0.248-0.101-0.123-0.208-0.005-0.296c0.104-0.076,0.231-0.118,0.34-0.188
		c0.39-0.253,0.546-0.617,0.495-1.075c-0.052-0.465-0.298-0.796-0.744-0.911c-0.949-0.246-1.922-0.101-2.885-0.118
		c-0.211-0.005-0.187,0.22-0.189,0.369c-0.002,0.123,0.097,0.128,0.185,0.098c0.442-0.152,0.419,0.112,0.352,0.397
		c-0.25,1.055-0.515,2.106-0.753,3.164c-0.086,0.383-0.283,0.488-0.665,0.482c-0.48-0.008-0.472-0.35-0.529-0.646
		c-0.243-1.244-0.471-2.492-0.704-3.738c-0.045-0.24-0.265-0.33-0.446-0.173c-0.083,0.072-0.16,0.166-0.205,0.266
		c-0.574,1.254-1.29,2.432-1.934,3.648c-0.148,0.28-0.324,0.548-0.672,0.63c-0.162,0.038-0.174,0.195-0.168,0.314
		c0.007,0.154,0.156,0.084,0.24,0.086c0.404,0.008,0.809-0.007,1.213,0.007c0.174,0.005,0.276-0.045,0.303-0.219
		c0.023-0.152-0.05-0.272-0.197-0.271c-0.24,0.003-0.223-0.14-0.241-0.306c-0.032-0.297,0.111-0.632,0.312-0.662
		c0.44-0.065,0.91-0.115,1.358,0.032c0.008,0.003,0.013,0.025,0.013,0.038c0.002,0.244,0.024,0.49-0.003,0.73
		c-0.017,0.142-0.174,0.147-0.302,0.184c-0.176,0.05-0.215,0.238-0.189,0.388c0.027,0.156,0.192,0.075,0.291,0.076
		C371.595,247.168,372.39,247.165,373.184,247.165z M382.66,242.633c0.57,0.056,0.631,0.129,0.499,0.699
		c-0.228,0.981-0.489,1.956-0.696,2.942c-0.126,0.598-0.609,0.365-0.937,0.435c-0.269,0.057-0.256-0.262-0.292-0.442
		c-0.24-1.23-0.467-2.464-0.706-3.694c-0.029-0.151,0.042-0.367-0.207-0.419c-0.277-0.058-0.333,0.166-0.425,0.335
		c-0.567,1.043-1.107,2.101-1.707,3.124c-0.259,0.443-0.402,1.016-1.009,1.184c-0.1,0.028-0.11,0.163-0.11,0.265
		c0.001,0.1,0.081,0.104,0.153,0.104c0.477,0,0.953-0.002,1.43-0.001c0.152,0.001,0.191-0.135,0.214-0.225
		c0.025-0.102-0.073-0.154-0.189-0.184c-0.448-0.115-0.453-0.183-0.281-0.612c0.15-0.377,0.381-0.53,0.78-0.471
		c0.184,0.027,0.375,0.01,0.563,0.005c0.601-0.017,0.328,0.496,0.439,0.76c0.132,0.314-0.169,0.238-0.323,0.242
		c-0.248,0.007-0.276,0.168-0.278,0.35c-0.002,0.234,0.187,0.132,0.285,0.132c1.862,0.007,3.725-0.002,5.587,0.014
		c0.22,0.002,0.364-0.115,0.372-0.247c0.026-0.457,0.197-0.878,0.27-1.322c0.016-0.098,0.007-0.167-0.093-0.209
		c-0.112-0.047-0.184-0.018-0.248,0.09c-0.125,0.21-0.252,0.421-0.401,0.613c-0.378,0.49-0.855,0.733-1.494,0.581
		c-0.134-0.031-0.16-0.088-0.219-0.198c-0.177-0.335,0.149-0.55,0.157-0.833c0.024-0.863,0.345-1.665,0.515-2.498
		c0.059-0.288,0.188-0.514,0.526-0.492c0.215,0.014,0.247-0.139,0.252-0.272c0.009-0.224-0.185-0.127-0.287-0.129
		c-0.563-0.011-1.127,0.016-1.688-0.014C382.799,242.228,382.652,242.319,382.66,242.633z M364.077,245.156
		c-0.016,0.925,0.368,1.814,1.374,2.031c0.357,0.077,0.781,0.225,1.083,0.105c0.583-0.229,1.142-0.582,1.356-1.253
		c0.033-0.102,0.19-0.241-0.008-0.317c-0.133-0.051-0.276-0.024-0.353,0.153c-0.103,0.24-0.259,0.448-0.456,0.624
		c-0.336,0.303-0.711,0.422-1.154,0.27c-0.442-0.152-0.615-0.5-0.658-0.928c-0.103-1.013,0.161-1.939,0.684-2.803
		c0.258-0.424,0.657-0.541,1.111-0.474c0.424,0.063,0.541,0.438,0.651,0.776c0.07,0.216,0.081,0.452,0.101,0.682
		c0.011,0.126,0.021,0.225,0.171,0.251c0.169,0.03,0.193-0.083,0.214-0.2c0.092-0.512,0.184-1.022,0.271-1.534
		c0.013-0.076,0.052-0.181-0.074-0.209c-0.084-0.02-0.192-0.03-0.237,0.056c-0.218,0.423-0.407,0.177-0.631,0.001
		c-0.131-0.103-0.306-0.177-0.47-0.202c-0.87-0.134-1.619,0.201-2.176,0.808C364.331,243.584,364.047,244.344,364.077,245.156z"/>
	<path fill="#FAFAFA" d="M374.516,223.376c-0.017,1.271-0.035,2.541-0.049,3.811c-0.001,0.15-0.049,0.285-0.158,0.374
		c-0.556,0.454-1.044,0.975-1.552,1.479c-0.394,0.39-0.867,0.714-1.228,1.136c-0.356,0.417-0.793,0.733-1.187,1.101
		c-0.137,0.127-0.144,0.204-0.001,0.335c1.132,1.045,2.198,2.159,3.366,3.168c0.451,0.39,0.819,0.836,0.753,1.573
		c-0.097,1.07-0.025,2.156-0.025,3.248c-0.317-0.041-0.48-0.271-0.657-0.462c-1.174-1.264-2.461-2.412-3.675-3.633
		c-1.096-1.102-2.23-2.166-3.311-3.283c-0.167-0.172-0.364-0.317-0.556-0.463c-0.263-0.2-0.287-0.354-0.016-0.604
		c0.892-0.823,1.755-1.675,2.629-2.517c0.884-0.851,1.782-1.688,2.646-2.559c0.833-0.841,1.764-1.583,2.526-2.497
		c0.105-0.126,0.268-0.205,0.404-0.305C374.456,223.312,374.486,223.344,374.516,223.376z"/>
	<path fill="#FAFAFA" d="M375.463,223.161c1.372,1.323,2.655,2.561,3.939,3.797c1.447,1.394,2.893,2.791,4.347,4.179
		c0.24,0.229,0.305,0.323-0.011,0.611c-1.214,1.111-2.372,2.282-3.531,3.452c-0.797,0.804-1.645,1.565-2.451,2.364
		c-0.623,0.616-1.302,1.178-1.848,1.871c-0.063,0.08-0.128,0.228-0.266,0.174c-0.14-0.055-0.073-0.203-0.073-0.307
		c-0.005-1.112,0.014-2.225-0.012-3.336c-0.01-0.422,0.177-0.713,0.469-0.95c0.713-0.579,1.344-1.238,1.989-1.889
		c0.49-0.494,1.013-0.965,1.545-1.419c0.235-0.201,0.224-0.312-0.003-0.523c-1.278-1.194-2.532-2.414-3.812-3.607
		c-0.246-0.229-0.366-0.46-0.312-0.783c0.176-1.061,0.014-2.124,0.029-3.186C375.464,223.497,375.463,223.385,375.463,223.161z"/>
	<path fill="#FAFAFA" d="M373.184,247.165c-0.794,0-1.589,0.003-2.383-0.005c-0.098-0.001-0.263,0.08-0.29-0.076
		c-0.026-0.149,0.013-0.338,0.189-0.388c0.128-0.036,0.285-0.042,0.302-0.184c0.027-0.24,0.005-0.486,0.003-0.73
		c0-0.013-0.005-0.035-0.013-0.038c-0.448-0.147-0.917-0.098-1.358-0.032c-0.201,0.03-0.344,0.365-0.312,0.662
		c0.018,0.166,0.001,0.308,0.241,0.306c0.147-0.002,0.221,0.118,0.197,0.271c-0.026,0.173-0.129,0.224-0.303,0.219
		c-0.404-0.014-0.809,0.001-1.213-0.007c-0.084-0.002-0.233,0.068-0.24-0.086c-0.005-0.119,0.006-0.276,0.168-0.314
		c0.348-0.082,0.523-0.35,0.672-0.63c0.644-1.217,1.36-2.395,1.934-3.648c0.045-0.1,0.122-0.193,0.205-0.266
		c0.181-0.157,0.4-0.067,0.445,0.173c0.234,1.246,0.462,2.493,0.705,3.738c0.058,0.295,0.049,0.638,0.529,0.645
		c0.382,0.006,0.578-0.099,0.665-0.481c0.238-1.058,0.503-2.109,0.753-3.165c0.067-0.284,0.09-0.549-0.352-0.396
		c-0.088,0.03-0.187,0.025-0.185-0.098c0.003-0.149-0.021-0.374,0.189-0.37c0.963,0.019,1.936-0.127,2.885,0.119
		c0.446,0.115,0.692,0.446,0.744,0.911c0.051,0.458-0.105,0.822-0.495,1.075c-0.108,0.07-0.237,0.112-0.34,0.188
		c-0.118,0.088-0.243,0.195,0.005,0.296c0.148,0.06,0.272,0.159,0.376,0.284c0.517,0.622,0.31,1.459-0.461,1.821
		c-0.303,0.142-0.628,0.207-0.966,0.205c-0.766-0.002-1.531,0-2.297,0C373.184,247.163,373.184,247.164,373.184,247.165z
		 M375.891,245.771c0-0.129-0.006-0.159,0.001-0.187c0.089-0.417-0.066-0.649-0.5-0.705c-0.592-0.078-0.626-0.058-0.771,0.528
		c-0.072,0.291-0.149,0.58-0.183,0.881c-0.017,0.143-0.021,0.276,0.09,0.36c0.169,0.127,0.994-0.008,1.155-0.16
		C375.928,246.257,375.912,245.966,375.891,245.771z M376.238,243.359c0-0.058,0.002-0.115,0-0.173
		c-0.013-0.386-0.319-0.459-0.598-0.521c-0.326-0.072-0.414,0.169-0.473,0.428c-0.085,0.378-0.176,0.756-0.272,1.131
		c-0.051,0.199-0.007,0.269,0.218,0.282C375.722,244.545,376.241,244.136,376.238,243.359z M369.813,245.235
		c0.347,0,0.606-0.002,0.865,0.001c0.131,0.002,0.229-0.004,0.19-0.186c-0.087-0.413-0.161-0.829-0.26-1.35
		C370.321,244.255,370.082,244.717,369.813,245.235z"/>
	<path fill="#FAFAFA" d="M382.66,242.633c-0.008-0.313,0.139-0.405,0.45-0.39c0.562,0.029,1.126,0.003,1.688,0.014
		c0.103,0.001,0.296-0.095,0.287,0.129c-0.005,0.134-0.037,0.286-0.252,0.272c-0.338-0.021-0.468,0.204-0.526,0.492
		c-0.17,0.833-0.49,1.635-0.515,2.498c-0.008,0.283-0.334,0.498-0.157,0.833c0.059,0.11,0.085,0.167,0.219,0.198
		c0.639,0.152,1.116-0.091,1.494-0.581c0.149-0.192,0.276-0.403,0.401-0.613c0.064-0.107,0.136-0.137,0.248-0.09
		c0.1,0.042,0.108,0.111,0.093,0.209c-0.072,0.444-0.243,0.865-0.27,1.322c-0.008,0.132-0.152,0.249-0.372,0.247
		c-1.862-0.016-3.725-0.007-5.587-0.014c-0.099,0-0.287,0.103-0.285-0.132c0.002-0.182,0.03-0.343,0.278-0.35
		c0.154-0.004,0.455,0.072,0.323-0.242c-0.111-0.264,0.161-0.776-0.439-0.76c-0.188,0.005-0.379,0.022-0.563-0.005
		c-0.399-0.06-0.63,0.094-0.78,0.471c-0.172,0.43-0.167,0.497,0.281,0.612c0.116,0.029,0.215,0.082,0.189,0.184
		c-0.022,0.09-0.062,0.226-0.214,0.225c-0.477-0.001-0.953,0.001-1.43,0.001c-0.072,0-0.152-0.004-0.153-0.104
		c0-0.102,0.01-0.236,0.11-0.265c0.606-0.168,0.75-0.741,1.009-1.184c0.6-1.023,1.14-2.081,1.706-3.124
		c0.093-0.169,0.148-0.393,0.426-0.335c0.249,0.052,0.178,0.268,0.207,0.419c0.239,1.23,0.466,2.464,0.706,3.694
		c0.036,0.181,0.023,0.499,0.291,0.442c0.328-0.069,0.812,0.163,0.938-0.435c0.207-0.986,0.469-1.961,0.696-2.942
		C383.291,242.762,383.23,242.688,382.66,242.633z M378.878,245.236c0.342,0,0.611-0.006,0.88,0.003
		c0.153,0.004,0.211-0.054,0.184-0.202c-0.075-0.413-0.149-0.825-0.244-1.351C379.4,244.247,379.157,244.707,378.878,245.236z"/>
	<path fill="#FAFAFA" d="M364.077,245.156c-0.03-0.812,0.254-1.572,0.797-2.163c0.558-0.606,1.306-0.941,2.176-0.808
		c0.165,0.025,0.339,0.1,0.47,0.202c0.225,0.176,0.414,0.422,0.631-0.001c0.045-0.086,0.152-0.074,0.237-0.056
		c0.125,0.028,0.087,0.134,0.074,0.209c-0.086,0.512-0.179,1.022-0.271,1.534c-0.021,0.117-0.045,0.23-0.214,0.2
		c-0.15-0.026-0.161-0.125-0.171-0.251c-0.02-0.229-0.031-0.466-0.101-0.682c-0.11-0.339-0.227-0.713-0.651-0.776
		c-0.454-0.067-0.853,0.05-1.111,0.474c-0.523,0.863-0.787,1.79-0.684,2.803c0.043,0.428,0.216,0.775,0.658,0.928
		c0.443,0.152,0.818,0.033,1.154-0.27c0.197-0.176,0.353-0.384,0.456-0.624c0.076-0.177,0.219-0.204,0.353-0.153
		c0.199,0.076,0.041,0.216,0.008,0.317c-0.214,0.671-0.773,1.023-1.356,1.253c-0.301,0.119-0.725-0.028-1.083-0.105
		C364.445,246.971,364.062,246.081,364.077,245.156z"/>
	<path fill="#FAFAFA" d="M374.427,223.279c0.128-0.059,0.12,0.009,0.089,0.097C374.486,223.344,374.456,223.312,374.427,223.279z"/>
	<path fill="#04173C" d="M375.891,245.771c0.021,0.195,0.037,0.486-0.208,0.718c-0.161,0.152-0.986,0.288-1.155,0.16
		c-0.112-0.084-0.107-0.218-0.09-0.36c0.034-0.301,0.111-0.59,0.183-0.881c0.145-0.586,0.179-0.606,0.771-0.528
		c0.434,0.056,0.589,0.288,0.5,0.705C375.885,245.611,375.891,245.642,375.891,245.771z"/>
	<path fill="#04173C" d="M376.238,243.359c0.003,0.776-0.517,1.186-1.124,1.146c-0.226-0.014-0.269-0.083-0.218-0.282
		c0.096-0.375,0.186-0.753,0.272-1.131c0.059-0.258,0.146-0.5,0.473-0.428c0.278,0.063,0.585,0.136,0.598,0.521
		C376.24,243.244,376.238,243.302,376.238,243.359z"/>
	<path fill="#04173C" d="M369.813,245.235c0.269-0.519,0.508-0.98,0.795-1.534c0.1,0.521,0.173,0.937,0.26,1.35
		c0.039,0.182-0.059,0.188-0.19,0.186C370.418,245.233,370.159,245.235,369.813,245.235z"/>
	<path fill="#04173C" d="M378.878,245.236c0.279-0.529,0.522-0.989,0.819-1.55c0.095,0.524,0.169,0.938,0.244,1.351
		c0.027,0.148-0.03,0.206-0.184,0.202C379.489,245.23,379.22,245.236,378.878,245.236z"/>
</g>
</svg>
