<?xml version="1.0" encoding="utf-8"?>
<!-- Generator: Adobe Illustrator 16.0.0, SVG Export Plug-In . SVG Version: 6.00 Build 0)  -->
<!DOCTYPE svg PUBLIC "-//W3C//DTD SVG 1.1//EN" "http://www.w3.org/Graphics/SVG/1.1/DTD/svg11.dtd">
<svg version="1.1" id="Capa_1" xmlns:sketch="http://www.bohemiancoding.com/sketch/ns"
	 xmlns="http://www.w3.org/2000/svg" xmlns:xlink="http://www.w3.org/1999/xlink" x="0px" y="0px" width="57.378px" height="31.4px"
	 viewBox="346.812 220.299 57.378 31.4" enable-background="new 346.812 220.299 57.378 31.4" xml:space="preserve">
<title>Slice 1</title>
<desc>Created with Sketch.</desc>
<g>
	<path fill="#0B5BA5" d="M375.5,220.319c9.284,0,18.567,0.01,27.851-0.02c0.698-0.002,0.841,0.141,0.839,0.839
		c-0.028,9.908-0.028,19.815,0,29.723c0.002,0.698-0.141,0.839-0.839,0.838c-18.566-0.024-37.134-0.024-55.701,0
		c-0.698,0.001-0.841-0.14-0.838-0.838c0.028-9.908,0.028-19.815,0-29.723c-0.002-0.698,0.14-0.841,0.838-0.839
		C356.934,220.329,366.217,220.319,375.5,220.319z M362.913,231.653c1.029,0.289,1.586,0.104,2.101-0.868
		c2.878-5.433,9.662-7.362,14.971-4.362c0.609,0.344,1.002,0.676,0.995,1.497c-0.01,1.022,0.703,1.729,1.696,1.723
		c0.894-0.005,1.32,0.426,1.554,1.093c0.382,1.089,1.089,1.228,2.079,0.939c-0.239-0.918-0.682-1.693-1.164-2.443
		c-0.221-0.342-0.288-0.63-0.218-1.065c0.259-1.612-0.732-2.646-2.356-2.463c-0.549,0.061-0.953-0.05-1.405-0.33
		c-2.887-1.789-6.03-2.289-9.307-1.53C367.537,224.843,364.624,227.534,362.913,231.653z M374.567,248.651
		c5.131-0.3,8.984-2.634,11.317-7.314c0.129-0.259,0.572-0.699,0.122-0.885c-0.44-0.181-1.075-0.328-1.484,0.217
		c-0.161,0.214-0.249,0.482-0.381,0.72c-2.37,4.276-7.217,6.475-11.999,5.396c-3.348-0.755-5.839-2.685-7.372-5.752
		c-0.419-0.84-1.103-0.844-1.627-0.577c-0.533,0.27,0.033,0.822,0.212,1.167C365.701,246.14,369.506,248.36,374.567,248.651z
		 M398.51,233.794c0.003,0,0.005,0,0.007,0c0-0.702-0.023-1.405,0.008-2.106c0.024-0.561-0.097-0.849-0.76-0.851
		c-0.684-0.002-0.688,0.393-0.618,0.826c0.189,1.157-0.219,1.519-1.423,1.492c-1.821-0.042-3.035,1.223-3.02,2.856
		c0.015,1.502,1.222,2.761,2.712,2.828c1.735,0.078,2.962-1.072,3.086-2.939C398.549,235.201,398.51,234.497,398.51,233.794z
		 M382.981,238.85c0.389,0,0.778,0.01,1.167-0.002c1.168-0.037,1.938-0.704,1.979-1.7c0.039-1.021-0.783-1.797-1.982-1.844
		c-0.583-0.022-1.167-0.003-1.751-0.008c-0.272-0.002-0.594,0.011-0.64-0.346c-0.056-0.435,0.304-0.503,0.61-0.513
		c0.816-0.025,1.634-0.034,2.45-0.007c0.517,0.017,0.795-0.092,0.779-0.696c-0.014-0.547-0.275-0.641-0.733-0.629
		c-0.895,0.022-1.791-0.017-2.685,0.023c-1.092,0.049-1.824,0.748-1.856,1.7c-0.032,0.995,0.74,1.787,1.853,1.851
		c0.62,0.036,1.244,0.002,1.866,0.013c0.308,0.005,0.686-0.015,0.662,0.44c-0.02,0.372-0.369,0.351-0.625,0.356
		c-0.816,0.018-1.635,0.03-2.45,0.004c-0.537-0.017-0.771,0.16-0.769,0.731c0.003,0.547,0.266,0.652,0.725,0.632
		C382.047,238.834,382.515,238.851,382.981,238.85z M358.818,237.267c0.901-0.831,1.706-1.602,2.546-2.333
		c0.421-0.367,0.44-0.612,0.008-1.005c-1.136-1.031-2.915-1.063-4.023-0.019c-1.139,1.074-1.209,2.825-0.16,3.99
		c1.048,1.165,2.802,1.31,3.976,0.284c0.248-0.218,0.9-0.379,0.376-0.957c-0.368-0.407-0.681-0.726-1.192-0.129
		C360.044,237.453,359.591,237.629,358.818,237.267z M392.258,235.022c0.006,0,0.012,0,0.018,0c0-0.351-0.015-0.701,0.003-1.051
		c0.026-0.509,0.017-0.902-0.704-0.879c-0.657,0.021-0.642,0.39-0.637,0.844c0.008,0.662,0.018,1.325-0.018,1.985
		c-0.051,0.947-0.531,1.566-1.52,1.568c-0.992,0.003-1.468-0.635-1.532-1.567c-0.049-0.698-0.033-1.401-0.014-2.101
		c0.014-0.458-0.071-0.717-0.625-0.727c-0.594-0.01-0.731,0.242-0.706,0.77c0.04,0.816-0.016,1.639,0.058,2.45
		c0.14,1.557,1.359,2.577,2.944,2.529c1.485-0.044,2.62-1.14,2.729-2.653C392.281,235.803,392.258,235.412,392.258,235.022z
		 M379.893,235.929c-0.023-1.631-1.289-2.827-2.95-2.788c-1.599,0.038-2.763,1.241-2.759,2.852c0.004,1.646,1.234,2.863,2.882,2.85
		C378.698,238.831,379.915,237.576,379.893,235.929z M362.234,236.804c0,0.43,0.021,0.859-0.005,1.286
		c-0.03,0.503,0.066,0.785,0.683,0.778c0.648-0.007,0.664-0.364,0.657-0.828c-0.01-0.624-0.025-1.249,0.008-1.871
		c0.058-1.081,0.646-1.748,1.532-1.694c1.04,0.064,1.499,0.728,1.54,1.711c0.027,0.661,0.029,1.325,0.004,1.987
		c-0.019,0.491,0.144,0.69,0.664,0.689c0.518,0,0.686-0.198,0.666-0.689c-0.035-0.856,0.019-1.72-0.062-2.57
		c-0.133-1.405-1.252-2.399-2.665-2.458C363.256,233.064,362.237,234.297,362.234,236.804z M353.689,238.843
		c0.558,0.038,1.154-0.15,1.633-0.579c0.288-0.258,0.966-0.405,0.447-1.059c-0.395-0.498-0.681-0.511-1.206-0.087
		c-0.867,0.698-1.912,0.424-2.354-0.487c-0.337-0.696-0.174-1.309,0.391-1.781c0.714-0.596,1.49-0.499,2.105,0.117
		c0.498,0.497,0.694,0.136,1.011-0.151c0.458-0.415,0.15-0.659-0.155-0.931c-0.938-0.836-2.421-0.989-3.481-0.353
		c-1.124,0.675-1.636,2.06-1.244,3.363C351.188,238.058,352.306,238.848,353.689,238.843z M371.349,238.845
		c0.668,0.035,1.33-0.24,1.898-0.766c0.508-0.471,0.403-1.046-0.229-1.302c-0.464-0.188-0.579,0.283-0.853,0.444
		c-0.594,0.349-1.175,0.385-1.748,0.001c-0.583-0.391-0.778-0.971-0.611-1.632c0.157-0.624,0.624-0.972,1.24-1.091
		c0.539-0.104,1.01,0.095,1.364,0.485c0.47,0.517,0.703,0.094,1.021-0.18c0.498-0.43,0.101-0.65-0.178-0.903
		c-0.945-0.858-2.408-1.019-3.46-0.384c-1.105,0.666-1.643,2.007-1.289,3.214C368.885,238.03,369.925,238.835,371.349,238.845z"/>
	<path fill="#F4F7FA" d="M362.913,231.653c1.711-4.119,4.625-6.81,8.946-7.81c3.276-0.759,6.419-0.259,9.306,1.53
		c0.452,0.281,0.857,0.391,1.405,0.33c1.624-0.183,2.615,0.852,2.356,2.463c-0.07,0.435-0.003,0.723,0.218,1.065
		c0.482,0.75,0.925,1.525,1.164,2.443c-0.99,0.288-1.696,0.149-2.079-0.939c-0.233-0.667-0.66-1.098-1.554-1.093
		c-0.993,0.007-1.706-0.701-1.696-1.723c0.008-0.821-0.386-1.152-0.995-1.497c-5.308-3-12.093-1.07-14.971,4.362
		C364.499,231.757,363.941,231.942,362.913,231.653z M384.027,227.619c-0.088-0.562-0.385-0.984-1.037-1.003
		c-0.638-0.018-1.047,0.325-1.08,0.97c-0.036,0.705,0.372,1.114,1.057,1.115C383.598,228.703,383.941,228.293,384.027,227.619z"/>
	<path fill="#F4F7FA" d="M374.567,248.651c-5.061-0.291-8.866-2.512-11.212-7.028c-0.179-0.346-0.745-0.898-0.212-1.168
		c0.524-0.267,1.208-0.263,1.627,0.577c1.533,3.068,4.024,4.997,7.372,5.752c4.782,1.079,9.628-1.119,11.999-5.396
		c0.132-0.237,0.22-0.506,0.381-0.72c0.409-0.545,1.044-0.397,1.484-0.217c0.45,0.186,0.007,0.626-0.122,0.885
		C383.551,246.018,379.698,248.352,374.567,248.651z"/>
	<path fill="#F4F7FA" d="M398.51,233.794c0,0.702,0.039,1.406-0.008,2.105c-0.124,1.867-1.351,3.017-3.087,2.939
		c-1.489-0.067-2.696-1.326-2.711-2.828c-0.016-1.633,1.197-2.899,3.02-2.856c1.203,0.028,1.612-0.334,1.423-1.492
		c-0.07-0.433-0.065-0.828,0.618-0.826c0.663,0.002,0.784,0.29,0.76,0.851c-0.031,0.701-0.008,1.404-0.008,2.106
		C398.515,233.794,398.513,233.794,398.51,233.794z M397.139,235.412c0.107-0.608,0.002-1.058-0.929-1.01
		c-1.394,0.07-2.13,0.557-2.11,1.605c0.017,0.94,0.569,1.42,1.45,1.489C396.542,237.573,397.126,236.813,397.139,235.412z"/>
	<path fill="#F4F7FA" d="M382.981,238.85c-0.467,0.001-0.935-0.016-1.4,0.006c-0.459,0.021-0.722-0.085-0.725-0.632
		c-0.003-0.571,0.231-0.748,0.769-0.731c0.815,0.026,1.634,0.014,2.45-0.004c0.256-0.006,0.605,0.016,0.625-0.356
		c0.023-0.455-0.354-0.436-0.662-0.44c-0.622-0.011-1.246,0.023-1.867-0.013c-1.111-0.064-1.884-0.857-1.852-1.851
		c0.032-0.953,0.764-1.651,1.856-1.7c0.894-0.04,1.79-0.001,2.684-0.023c0.459-0.012,0.72,0.082,0.734,0.629
		c0.016,0.604-0.264,0.713-0.779,0.696c-0.816-0.027-1.634-0.018-2.45,0.007c-0.307,0.01-0.667,0.078-0.61,0.513
		c0.046,0.357,0.366,0.344,0.64,0.346c0.584,0.005,1.168-0.015,1.751,0.008c1.199,0.047,2.021,0.824,1.981,1.844
		c-0.039,0.996-0.811,1.663-1.978,1.7C383.76,238.859,383.37,238.85,382.981,238.85z"/>
	<path fill="#F4F7FA" d="M358.818,237.267c0.773,0.362,1.226,0.187,1.53-0.169c0.511-0.597,0.824-0.278,1.192,0.129
		c0.524,0.578-0.128,0.74-0.376,0.957c-1.174,1.025-2.927,0.881-3.976-0.284c-1.049-1.165-0.979-2.916,0.16-3.99
		c1.108-1.045,2.888-1.013,4.023,0.019c0.432,0.393,0.413,0.638-0.008,1.004C360.524,235.665,359.719,236.436,358.818,237.267z
		 M359.572,234.585c-1.282-0.099-1.782,0.419-1.627,1.595C358.45,235.685,358.994,235.151,359.572,234.585z"/>
	<path fill="#F4F7FA" d="M392.258,235.022c0,0.39,0.023,0.78-0.004,1.168c-0.108,1.513-1.243,2.608-2.729,2.653
		c-1.584,0.047-2.805-0.974-2.944-2.53c-0.072-0.812-0.018-1.634-0.058-2.45c-0.025-0.527,0.112-0.779,0.707-0.769
		c0.553,0.009,0.638,0.269,0.625,0.727c-0.021,0.7-0.036,1.404,0.013,2.102c0.064,0.932,0.54,1.57,1.532,1.567
		c0.988-0.002,1.469-0.62,1.52-1.568c0.035-0.66,0.025-1.323,0.018-1.985c-0.005-0.455-0.021-0.823,0.637-0.844
		c0.721-0.022,0.73,0.371,0.704,0.88c-0.018,0.35-0.003,0.701-0.003,1.051C392.27,235.022,392.264,235.022,392.258,235.022z"/>
	<path fill="#F4F7FA" d="M379.893,235.929c0.022,1.647-1.194,2.902-2.827,2.915c-1.647,0.013-2.878-1.204-2.882-2.85
		c-0.004-1.611,1.16-2.814,2.759-2.852C378.604,233.102,379.869,234.298,379.893,235.929z M377.083,237.505
		c0.927-0.08,1.416-0.622,1.473-1.511c0.053-0.837-0.74-1.595-1.579-1.521c-0.896,0.079-1.429,0.59-1.458,1.514
		C375.491,236.866,376.205,237.537,377.083,237.505z"/>
	<path fill="#F4F7FA" d="M362.233,236.804c0.004-2.506,1.023-3.74,3.02-3.657c1.412,0.059,2.532,1.053,2.665,2.458
		c0.081,0.851,0.026,1.713,0.062,2.57c0.021,0.491-0.147,0.689-0.665,0.69c-0.52,0-0.683-0.199-0.664-0.69
		c0.025-0.662,0.023-1.326-0.004-1.987c-0.041-0.983-0.5-1.647-1.54-1.711c-0.885-0.055-1.474,0.613-1.531,1.693
		c-0.033,0.622-0.018,1.247-0.008,1.871c0.008,0.464-0.008,0.821-0.656,0.828c-0.617,0.007-0.713-0.275-0.683-0.778
		C362.254,237.663,362.234,237.232,362.233,236.804z"/>
	<path fill="#F4F7FA" d="M353.689,238.843c-1.384,0.005-2.501-0.785-2.852-1.948c-0.392-1.303,0.12-2.688,1.244-3.363
		c1.061-0.637,2.543-0.484,3.481,0.353c0.306,0.272,0.614,0.516,0.155,0.931c-0.317,0.287-0.513,0.648-1.011,0.151
		c-0.616-0.615-1.391-0.712-2.105-0.116c-0.565,0.472-0.729,1.084-0.391,1.781c0.441,0.911,1.487,1.186,2.354,0.487
		c0.525-0.424,0.811-0.411,1.206,0.087c0.519,0.652-0.159,0.801-0.447,1.059C354.844,238.692,354.247,238.881,353.689,238.843z"/>
	<path fill="#F4F7FA" d="M371.349,238.845c-1.424-0.01-2.464-0.814-2.845-2.113c-0.354-1.208,0.183-2.548,1.289-3.214
		c1.053-0.635,2.515-0.474,3.46,0.384c0.279,0.253,0.675,0.473,0.178,0.902c-0.318,0.274-0.55,0.697-1.021,0.18
		c-0.354-0.389-0.826-0.589-1.364-0.484c-0.617,0.12-1.083,0.468-1.24,1.091c-0.167,0.662,0.028,1.242,0.611,1.632
		c0.573,0.384,1.154,0.348,1.748-0.001c0.274-0.161,0.388-0.633,0.853-0.444c0.632,0.256,0.737,0.831,0.229,1.302
		C372.679,238.604,372.017,238.88,371.349,238.845z"/>
	<path fill="#FE731B" d="M384.027,227.619c-0.086,0.674-0.43,1.083-1.061,1.083c-0.686-0.001-1.093-0.411-1.057-1.115
		c0.033-0.646,0.442-0.988,1.08-0.97C383.643,226.635,383.939,227.057,384.027,227.619z"/>
	<path fill="#0B5BA5" d="M397.139,235.412c-0.013,1.4-0.597,2.161-1.589,2.084c-0.881-0.069-1.434-0.548-1.45-1.489
		c-0.02-1.049,0.717-1.535,2.11-1.605C397.141,234.354,397.246,234.804,397.139,235.412z"/>
	<path fill="#0B5BA5" d="M359.572,234.585c-0.578,0.566-1.122,1.1-1.627,1.595C357.79,235.004,358.29,234.486,359.572,234.585z"/>
	<path fill="#0B5BA5" d="M377.084,237.506c-0.879,0.031-1.593-0.64-1.565-1.519c0.029-0.924,0.563-1.435,1.458-1.514
		c0.839-0.074,1.632,0.683,1.579,1.521C378.499,236.883,378.01,237.425,377.084,237.506z"/>
</g>
</svg>
