<?xml version="1.0" encoding="utf-8"?>
<!-- Generator: Adobe Illustrator 16.0.0, SVG Export Plug-In . SVG Version: 6.00 Build 0)  -->
<!DOCTYPE svg PUBLIC "-//W3C//DTD SVG 1.1//EN" "http://www.w3.org/Graphics/SVG/1.1/DTD/svg11.dtd">
<svg version="1.1" id="Capa_1" xmlns:sketch="http://www.bohemiancoding.com/sketch/ns"
	 xmlns="http://www.w3.org/2000/svg" xmlns:xlink="http://www.w3.org/1999/xlink" x="0px" y="0px" width="52.477px" height="31.4px"
	 viewBox="348.856 220.598 52.477 31.4" enable-background="new 348.856 220.598 52.477 31.4" xml:space="preserve">
<title>Slice 1</title>
<desc>Created with Sketch.</desc>
<g>
	<path id="Fill-1" sketch:type="MSShapeGroup" fill="#D8222B" d="M380.257,236.298c0,8.671-7.03,15.7-15.701,15.7
		s-15.699-7.029-15.699-15.7c0-8.67,7.028-15.7,15.699-15.7S380.257,227.627,380.257,236.298"/>
	<path id="Fill-2" sketch:type="MSShapeGroup" fill="#EE9F2C" d="M385.633,220.598c-4.056,0-7.752,1.54-10.539,4.064
		c-0.567,0.515-1.097,1.071-1.585,1.662h3.17c0.437,0.527,0.835,1.082,1.198,1.663h-5.565c-0.333,0.535-0.636,1.089-0.904,1.663
		h7.375c0.25,0.538,0.472,1.092,0.663,1.662h-8.704c-0.182,0.541-0.334,1.096-0.456,1.663h9.615c0.23,1.072,0.354,2.182,0.354,3.324
		c0,1.743-0.285,3.42-0.811,4.986h-8.704c0.19,0.57,0.413,1.124,0.664,1.663h7.376c-0.271,0.574-0.573,1.128-0.906,1.662h-5.565
		c0.364,0.581,0.765,1.137,1.197,1.663h3.17c-0.485,0.592-1.015,1.148-1.584,1.661c2.786,2.525,6.482,4.064,10.538,4.064
		c8.671,0,15.7-7.029,15.7-15.7C401.333,227.627,394.304,220.598,385.633,220.598"/>
	<path id="Fill-3" sketch:type="MSShapeGroup" d="M399.241,245.05c0-0.281,0.226-0.508,0.508-0.508c0.279,0,0.506,0.227,0.506,0.508
		c0,0.28-0.227,0.507-0.506,0.507C399.467,245.557,399.241,245.33,399.241,245.05L399.241,245.05L399.241,245.05z M399.749,245.434
		c0.211,0,0.386-0.174,0.386-0.384c0-0.216-0.175-0.387-0.386-0.387c-0.216,0-0.386,0.171-0.386,0.387
		C399.363,245.26,399.533,245.434,399.749,245.434L399.749,245.434L399.749,245.434z M399.68,245.271h-0.104v-0.444h0.188
		c0.039,0,0.078,0,0.114,0.021c0.035,0.024,0.057,0.066,0.057,0.111c0,0.051-0.029,0.097-0.078,0.115l0.081,0.196h-0.112
		l-0.07-0.177h-0.075V245.271L399.68,245.271z M399.68,245.02h0.057c0.021,0,0.045,0.001,0.063-0.009
		c0.019-0.012,0.028-0.032,0.028-0.052c0-0.017-0.012-0.035-0.027-0.046c-0.018-0.009-0.046-0.008-0.065-0.008h-0.055V245.02
		L399.68,245.02z"/>
	<path id="Fill-4" sketch:type="MSShapeGroup" d="M360.89,238.017c-0.179-0.021-0.258-0.026-0.381-0.026
		c-0.965,0-1.455,0.332-1.455,0.984c0,0.403,0.239,0.661,0.611,0.661C360.36,239.636,360.86,238.974,360.89,238.017L360.89,238.017
		L360.89,238.017z M362.129,240.902h-1.412l0.032-0.671c-0.43,0.528-1.005,0.782-1.787,0.782c-0.923,0-1.556-0.721-1.556-1.769
		c0-1.578,1.101-2.497,2.992-2.497c0.194,0,0.441,0.017,0.695,0.05c0.053-0.213,0.066-0.305,0.066-0.419
		c0-0.429-0.297-0.59-1.094-0.59c-0.833-0.009-1.521,0.2-1.804,0.292c0.019-0.107,0.236-1.456,0.236-1.456
		c0.849-0.25,1.409-0.343,2.04-0.343c1.464,0,2.238,0.657,2.237,1.897c0.003,0.334-0.053,0.744-0.138,1.284
		C362.491,238.4,362.173,240.412,362.129,240.902L362.129,240.902L362.129,240.902z"/>
	<path id="Fill-5" sketch:type="MSShapeGroup" d="M356.693,240.902h-1.705l0.976-6.122l-2.18,6.122h-1.162l-0.144-6.087
		l-1.026,6.087h-1.595l1.333-7.964h2.45l0.149,4.458l1.495-4.458h2.726L356.693,240.902"/>
	<path id="Fill-6" sketch:type="MSShapeGroup" d="M387.741,238.017c-0.179-0.021-0.26-0.026-0.382-0.026
		c-0.965,0-1.454,0.332-1.454,0.984c0,0.403,0.238,0.661,0.61,0.661C387.209,239.636,387.711,238.974,387.741,238.017
		L387.741,238.017L387.741,238.017z M388.98,240.902h-1.413l0.034-0.671c-0.433,0.528-1.007,0.782-1.787,0.782
		c-0.925,0-1.558-0.721-1.558-1.769c0-1.578,1.102-2.497,2.993-2.497c0.192,0,0.439,0.017,0.693,0.05
		c0.054-0.213,0.066-0.305,0.066-0.419c0-0.429-0.297-0.59-1.092-0.59c-0.835-0.009-1.521,0.2-1.806,0.292
		c0.019-0.107,0.238-1.456,0.238-1.456c0.849-0.25,1.409-0.343,2.038-0.343c1.465,0,2.24,0.657,2.238,1.897
		c0.003,0.334-0.052,0.744-0.138,1.284C389.34,238.4,389.023,240.412,388.98,240.902L388.98,240.902L388.98,240.902z"/>
	<path id="Fill-7" sketch:type="MSShapeGroup" d="M369.704,240.803c-0.466,0.147-0.83,0.211-1.224,0.211
		c-0.872,0-1.347-0.501-1.347-1.423c-0.013-0.284,0.125-1.039,0.233-1.725c0.098-0.605,0.739-4.421,0.739-4.421h1.693l-0.197,0.98
		h1.023l-0.231,1.557h-1.028c-0.196,1.233-0.477,2.766-0.48,2.969c0,0.334,0.178,0.48,0.583,0.48c0.195,0,0.345-0.021,0.46-0.062
		L369.704,240.803"/>
	<path id="Fill-8" sketch:type="MSShapeGroup" d="M374.898,240.752c-0.582,0.178-1.143,0.263-1.738,0.262
		c-1.897-0.002-2.886-0.992-2.886-2.889c0-2.213,1.258-3.843,2.965-3.843c1.397,0,2.289,0.913,2.289,2.343
		c0,0.475-0.061,0.938-0.208,1.594h-3.374c-0.114,0.938,0.487,1.33,1.473,1.33c0.606,0,1.153-0.124,1.761-0.407L374.898,240.752
		L374.898,240.752z M373.947,236.913c0.009-0.136,0.179-1.157-0.789-1.157c-0.539,0-0.925,0.41-1.082,1.157H373.947L373.947,236.913
		z"/>
	<path id="Fill-9" sketch:type="MSShapeGroup" d="M363.152,236.473c0,0.82,0.397,1.385,1.298,1.809
		c0.69,0.323,0.797,0.421,0.797,0.714c0,0.405-0.304,0.587-0.979,0.587c-0.508,0-0.982-0.079-1.526-0.255
		c0,0-0.225,1.427-0.235,1.494c0.387,0.086,0.732,0.165,1.773,0.192c1.798,0,2.628-0.685,2.628-2.164
		c0-0.891-0.347-1.412-1.201-1.805c-0.714-0.328-0.796-0.402-0.796-0.705c0-0.35,0.283-0.529,0.834-0.529
		c0.335,0,0.791,0.037,1.225,0.1l0.243-1.503c-0.442-0.071-1.111-0.125-1.5-0.125C363.806,234.282,363.146,235.276,363.152,236.473"
		/>
	<path id="Fill-10" sketch:type="MSShapeGroup" d="M383.188,234.451c0.475,0,0.916,0.125,1.523,0.43l0.279-1.729
		c-0.251-0.097-1.129-0.673-1.874-0.673c-1.14,0-2.104,0.566-2.782,1.499c-0.99-0.327-1.397,0.335-1.895,0.996l-0.443,0.104
		c0.033-0.219,0.063-0.434,0.054-0.653h-1.564c-0.215,2.005-0.594,4.036-0.89,6.042l-0.077,0.435h1.705
		c0.285-1.85,0.44-3.033,0.536-3.835l0.641-0.355c0.096-0.358,0.396-0.478,0.999-0.466c-0.08,0.425-0.121,0.871-0.121,1.331
		c0,2.118,1.143,3.437,2.979,3.437c0.472,0,0.877-0.063,1.506-0.233l0.301-1.814c-0.566,0.278-1.03,0.409-1.45,0.409
		c-0.989,0-1.59-0.731-1.59-1.939C381.023,235.68,381.917,234.451,383.188,234.451"/>
	<path id="Fill-12" sketch:type="MSShapeGroup" fill="#FFFFFF" d="M357.183,240.43h-1.704l0.978-6.122l-2.18,6.122h-1.162
		l-0.144-6.085l-1.026,6.085h-1.595l1.333-7.963h2.451l0.068,4.93l1.654-4.93h2.647L357.183,240.43"/>
	<path id="Fill-11" sketch:type="MSShapeGroup" d="M397.619,232.938l-0.379,2.301c-0.465-0.612-0.967-1.056-1.628-1.056
		c-0.86,0-1.643,0.651-2.154,1.611c-0.715-0.149-1.452-0.398-1.452-0.398l-0.002,0.005c0.059-0.536,0.081-0.864,0.077-0.976h-1.566
		c-0.213,2.005-0.593,4.036-0.888,6.042l-0.078,0.435h1.705c0.23-1.494,0.406-2.737,0.536-3.721
		c0.582-0.527,0.873-0.986,1.462-0.957c-0.261,0.631-0.413,1.357-0.413,2.103c0,1.619,0.818,2.687,2.058,2.687
		c0.625,0,1.105-0.215,1.571-0.716l-0.078,0.603h1.612l1.296-7.962H397.619L397.619,232.938z M395.487,239.405
		c-0.58,0-0.875-0.43-0.875-1.276c0-1.273,0.548-2.175,1.322-2.175c0.587,0,0.903,0.446,0.903,1.269
		C396.838,238.507,396.279,239.405,395.487,239.405L395.487,239.405L395.487,239.405z"/>
	<path id="Fill-13" sketch:type="MSShapeGroup" fill="#FFFFFF" d="M361.38,237.544c-0.179-0.02-0.258-0.024-0.38-0.024
		c-0.966,0-1.455,0.329-1.455,0.984c0,0.403,0.239,0.66,0.611,0.66C360.851,239.164,361.352,238.504,361.38,237.544L361.38,237.544
		L361.38,237.544z M362.62,240.43h-1.412l0.032-0.67c-0.43,0.529-1.006,0.782-1.786,0.782c-0.924,0-1.557-0.723-1.557-1.77
		c0-1.577,1.101-2.496,2.992-2.496c0.194,0,0.441,0.019,0.695,0.049c0.053-0.212,0.067-0.305,0.067-0.42
		c0-0.429-0.297-0.587-1.093-0.587c-0.833-0.01-1.521,0.2-1.804,0.29c0.018-0.107,0.235-1.454,0.235-1.454
		c0.849-0.251,1.411-0.344,2.041-0.344c1.463,0,2.239,0.656,2.237,1.898c0.003,0.333-0.053,0.744-0.138,1.284
		C362.981,237.929,362.663,239.938,362.62,240.43L362.62,240.43L362.62,240.43z"/>
	<path id="Fill-14" sketch:type="MSShapeGroup" fill="#FFFFFF" d="M385.48,232.682l-0.279,1.729
		c-0.607-0.306-1.05-0.431-1.522-0.431c-1.272,0-2.164,1.23-2.164,2.984c0,1.208,0.6,1.94,1.59,1.94c0.42,0,0.884-0.132,1.448-0.409
		l-0.3,1.815c-0.628,0.17-1.033,0.232-1.507,0.232c-1.834,0-2.978-1.319-2.978-3.438c0-2.848,1.578-4.836,3.839-4.836
		C384.353,232.268,385.229,232.583,385.48,232.682"/>
	<path id="Fill-15" sketch:type="MSShapeGroup" fill="#FFFFFF" d="M388.23,237.544c-0.179-0.02-0.257-0.024-0.379-0.024
		c-0.968,0-1.455,0.329-1.455,0.984c0,0.403,0.237,0.66,0.609,0.66C387.7,239.164,388.202,238.504,388.23,237.544L388.23,237.544
		L388.23,237.544z M389.471,240.43h-1.413l0.033-0.67c-0.431,0.529-1.006,0.782-1.786,0.782c-0.923,0-1.558-0.723-1.558-1.77
		c0-1.577,1.103-2.496,2.994-2.496c0.191,0,0.439,0.019,0.693,0.049c0.053-0.212,0.065-0.305,0.065-0.42
		c0-0.429-0.296-0.587-1.093-0.587c-0.833-0.01-1.521,0.2-1.805,0.29c0.02-0.107,0.238-1.454,0.238-1.454
		c0.848-0.251,1.409-0.344,2.039-0.344c1.465,0,2.24,0.656,2.238,1.898c0.003,0.333-0.052,0.744-0.139,1.284
		C389.833,237.929,389.514,239.938,389.471,240.43L389.471,240.43L389.471,240.43z"/>
	<path id="Fill-16" sketch:type="MSShapeGroup" fill="#FFFFFF" d="M370.195,240.332c-0.467,0.146-0.83,0.21-1.224,0.21
		c-0.872,0-1.347-0.501-1.347-1.422c-0.013-0.288,0.125-1.04,0.233-1.727c0.098-0.607,0.739-4.42,0.739-4.42h1.693l-0.197,0.98
		h0.868l-0.231,1.556h-0.873c-0.196,1.231-0.477,2.765-0.48,2.971c0,0.334,0.178,0.477,0.583,0.477c0.195,0,0.345-0.018,0.46-0.06
		L370.195,240.332"/>
	<path id="Fill-17" sketch:type="MSShapeGroup" fill="#FFFFFF" d="M375.39,240.279c-0.583,0.178-1.144,0.264-1.739,0.263
		c-1.896-0.002-2.885-0.992-2.885-2.891c0-2.213,1.257-3.842,2.964-3.842c1.397,0,2.29,0.91,2.29,2.343
		c0,0.475-0.062,0.939-0.21,1.593h-3.373c-0.114,0.94,0.487,1.332,1.474,1.332c0.606,0,1.153-0.126,1.759-0.409L375.39,240.279
		L375.39,240.279z M374.438,236.438c0.01-0.135,0.18-1.156-0.789-1.156c-0.54,0-0.926,0.414-1.083,1.156H374.438L374.438,236.438z"
		/>
	<path id="Fill-18" sketch:type="MSShapeGroup" fill="#FFFFFF" d="M363.642,236.001c0,0.819,0.397,1.384,1.298,1.81
		c0.69,0.322,0.797,0.42,0.797,0.715c0,0.403-0.304,0.585-0.978,0.585c-0.508,0-0.982-0.08-1.528-0.256c0,0-0.223,1.428-0.233,1.496
		c0.386,0.084,0.732,0.161,1.773,0.191c1.799,0,2.629-0.685,2.629-2.165c0-0.89-0.347-1.412-1.201-1.804
		c-0.714-0.329-0.797-0.401-0.797-0.704c0-0.351,0.284-0.531,0.834-0.531c0.335,0,0.792,0.037,1.225,0.098l0.242-1.501
		c-0.441-0.069-1.11-0.125-1.499-0.125C364.296,233.81,363.637,234.804,363.642,236.001"/>
	<path id="Fill-19" sketch:type="MSShapeGroup" fill="#FFFFFF" d="M398.491,240.43h-1.613l0.082-0.603
		c-0.468,0.5-0.947,0.715-1.571,0.715c-1.239,0-2.058-1.068-2.058-2.688c0-2.154,1.27-3.97,2.772-3.97
		c0.66,0,1.161,0.27,1.627,0.885l0.378-2.302h1.682L398.491,240.43L398.491,240.43z M395.978,238.933c0.794,0,1.352-0.9,1.352-2.182
		c0-0.824-0.317-1.27-0.904-1.27c-0.771,0-1.321,0.902-1.321,2.176C395.104,238.505,395.397,238.933,395.978,238.933
		L395.978,238.933L395.978,238.933z"/>
	<path id="Fill-20" sketch:type="MSShapeGroup" fill="#FFFFFF" d="M391.005,233.954c-0.212,2.004-0.592,4.036-0.887,6.041
		l-0.08,0.436h1.705c0.61-3.96,0.759-4.734,1.715-4.636c0.151-0.812,0.436-1.521,0.646-1.879c-0.713-0.151-1.112,0.254-1.634,1.021
		c0.041-0.331,0.117-0.652,0.102-0.982H391.005"/>
	<path id="Fill-21" sketch:type="MSShapeGroup" fill="#FFFFFF" d="M376.976,233.954c-0.213,2.004-0.593,4.036-0.889,6.041
		l-0.078,0.436h1.705c0.61-3.96,0.758-4.734,1.712-4.636c0.151-0.812,0.436-1.521,0.648-1.879c-0.715-0.151-1.113,0.254-1.635,1.021
		c0.041-0.331,0.116-0.652,0.102-0.982H376.976"/>
	<path id="Fill-22" sketch:type="MSShapeGroup" fill="#FFFFFF" d="M399.24,239.923c0-0.283,0.227-0.508,0.507-0.508
		c0.281,0,0.507,0.225,0.507,0.508c0,0.278-0.226,0.507-0.507,0.507C399.467,240.43,399.24,240.201,399.24,239.923L399.24,239.923
		L399.24,239.923z M399.747,240.309c0.212,0,0.387-0.173,0.387-0.386c0-0.214-0.175-0.387-0.387-0.387
		c-0.214,0-0.385,0.173-0.385,0.387C399.362,240.136,399.533,240.309,399.747,240.309L399.747,240.309L399.747,240.309z
		 M399.679,240.145h-0.104v-0.446h0.189c0.039,0,0.078,0.002,0.113,0.023c0.036,0.024,0.057,0.067,0.057,0.112
		c0,0.05-0.028,0.098-0.077,0.114l0.081,0.196h-0.115l-0.068-0.176h-0.075V240.145L399.679,240.145z M399.679,239.892h0.057
		c0.021,0,0.046,0.002,0.063-0.008c0.017-0.011,0.027-0.032,0.027-0.052c0-0.016-0.012-0.036-0.027-0.045
		c-0.017-0.012-0.046-0.01-0.065-0.01h-0.055V239.892L399.679,239.892z"/>
</g>
</svg>
