<?xml version="1.0" encoding="utf-8"?>
<!-- Generator: Adobe Illustrator 16.0.0, SVG Export Plug-In . SVG Version: 6.00 Build 0)  -->
<!DOCTYPE svg PUBLIC "-//W3C//DTD SVG 1.1//EN" "http://www.w3.org/Graphics/SVG/1.1/DTD/svg11.dtd">
<svg version="1.1" id="Capa_1" xmlns:sketch="http://www.bohemiancoding.com/sketch/ns"
	 xmlns="http://www.w3.org/2000/svg" xmlns:xlink="http://www.w3.org/1999/xlink" x="0px" y="0px" width="26.455px" height="31.4px"
	 viewBox="363.159 220.549 26.455 31.4" enable-background="new 363.159 220.549 26.455 31.4" xml:space="preserve">
<g>
	<path fill="#C4161C" d="M363.567,228.134v16.341c0,0-0.18,1.98,2.457,2.586c2.637,0.605,20.796,4.842,20.796,4.842
		s2.794,0.651,2.794-2.913c0-3.467,0-25.972,0-25.972s-0.218-3.191-3.873-2.256c-4.457,1.14-19.717,4.787-19.717,4.787
		S363.567,225.933,363.567,228.134z"/>
	<path fill="#F15A22" d="M363.162,228.093v16.342c0,0-0.179,1.98,2.458,2.586c2.637,0.604,20.795,4.842,20.795,4.842
		s2.794,0.65,2.794-2.914c0-3.466,0-25.972,0-25.972s-0.217-3.191-3.872-2.256c-4.457,1.14-19.717,4.786-19.717,4.786
		S363.162,225.892,363.162,228.093z"/>
	<g>
		<g>
			<g>
				<g>
					<path fill="#FFFFFF" d="M365.368,238.698h1.389l1.873,3.542l-0.008-3.542h0.99v4.857h-1.305l-1.858-3.633h-0.014v3.633
						l-0.56,0.018L365.368,238.698z"/>
					<path fill="#FFFFFF" d="M373.319,239.972l0.978,0.021l0.086,0.471c0,0,0.204-0.574,0.76-0.574c0.091,0,0.188,0,0.286,0.027
						v0.939c-0.084-0.049-0.251-0.076-0.417-0.076c-0.759,0-0.759,0.946-0.759,1.461v1.315h-0.933V239.972L373.319,239.972z"/>
					<path fill="#FFFFFF" d="M375.744,240.16c0.362-0.167,0.849-0.271,1.246-0.271c1.093,0,1.544,0.452,1.544,1.51v0.46
						c0,0.361,0.008,0.633,0.015,0.897c0.008,0.271,0.021,0.522,0.042,0.8h-0.274c-0.428,0-0.582-0.424-0.589-0.535h-0.014
						c-0.216,0.396-0.683,0.619-1.106,0.619c-0.633,0-1.252-0.383-1.252-1.065c0-0.535,0.257-0.849,0.612-1.023
						c0.355-0.173,0.814-0.208,1.205-0.208h0.515c0-0.578-0.258-0.772-0.807-0.772c-0.397,0-0.795,0.153-1.107,0.39L375.744,240.16z
						 M376.837,242.957c0.285,0,0.509-0.125,0.654-0.32c0.153-0.201,0.195-0.459,0.195-0.737h-0.403
						c-0.418,0-1.037,0.069-1.037,0.619C376.246,242.825,376.503,242.957,376.837,242.957z"/>
					<path fill="#FFFFFF" d="M378.681,239.972h1.235v0.487h0.014c0.293-0.41,0.689-0.57,1.177-0.57c0.849,0,1.218,0.598,1.218,1.405
						v2.262h-0.933v-1.914c0-0.438-0.007-1.029-0.605-1.029c-0.675,0-0.821,0.73-0.821,1.189l0.01,1.742l-0.454,0.006
						L378.681,239.972z"/>
				</g>
				<path fill="#FFFFFF" d="M382.316,244.785c0.503-0.028,0.572-0.126,0.572-0.685v-4.162h0.854l0.081,0.104v3.757
					c0,0.509-0.146,1.284-1.081,1.284c-0.154,0-0.343-0.021-0.461-0.056L382.316,244.785z"/>
			</g>
		</g>
		<path fill="#FFFFFF" d="M372.962,242.755c-0.006-0.264-0.014-0.535-0.014-0.896v-0.46c0-1.058-0.452-1.51-1.545-1.51
			c-0.396,0-0.883,0.104-1.246,0.271l0.028,0.8c0.313-0.236,0.71-0.39,1.106-0.39c0.549,0,0.807,0.194,0.807,0.772h-0.515
			c-0.39,0-0.849,0.034-1.204,0.208c-0.175,0.086-0.326,0.207-0.435,0.37l0.219,1.446c0.233,0.178,0.542,0.272,0.856,0.272
			c0.424,0,0.89-0.224,1.106-0.62h0.014c0.008,0.112,0.116,0.536,0.566,0.536h0.297C372.983,243.277,372.97,243.026,372.962,242.755
			z M371.904,242.637c-0.146,0.195-0.368,0.32-0.654,0.32c-0.333,0-0.591-0.132-0.591-0.438c0-0.551,0.619-0.62,1.037-0.62h0.403
			C372.099,242.178,372.058,242.436,371.904,242.637z"/>
		<path fill="#FFFFFF" d="M387.285,242.755c-0.007-0.264-0.014-0.535-0.014-0.896v-0.46c0-1.058-0.452-1.51-1.545-1.51
			c-0.396,0-0.883,0.104-1.245,0.271l0.027,0.8c0.313-0.236,0.71-0.39,1.107-0.39c0.549,0,0.807,0.194,0.807,0.772h-0.515
			c-0.39,0-0.849,0.034-1.204,0.208c-0.154,0.076-0.287,0.179-0.392,0.313l0.557,1.7c0.151,0.049,0.313,0.075,0.476,0.075
			c0.424,0,0.891-0.224,1.105-0.62h0.015c0.007,0.112,0.096,0.388,0.589,0.536h0.274
			C387.307,243.277,387.292,243.026,387.285,242.755z M386.228,242.637c-0.146,0.195-0.369,0.32-0.653,0.32
			c-0.335,0-0.592-0.132-0.592-0.438c0-0.551,0.619-0.62,1.036-0.62h0.403C386.422,242.178,386.381,242.436,386.228,242.637z"/>
		<path fill="#FFFFFF" d="M384.809,220.831l-0.164,0.042c0.769,6.848,2.317,13.816,4.563,19.936v-0.091v-0.422
			C387.038,234.278,385.56,227.536,384.809,220.831z M380.396,221.915c0.763,10.468,3.442,20.785,7.661,29.715
			c0.046-0.029,0.093-0.063,0.14-0.098c-4.205-8.912-6.878-19.21-7.636-29.658L380.396,221.915z M366.707,225.223l-0.181,0.043
			c-0.762,3.657-1.205,7.303-1.246,10.936c-0.002,0.19-0.003,0.381-0.003,0.57c0,3.522,0.366,6.991,1.121,10.464l0.182,0.042
			c-0.764-3.487-1.134-6.969-1.134-10.506c0-0.189,0.001-0.379,0.003-0.568C365.489,232.558,365.938,228.897,366.707,225.223z
			 M369.343,232.87c0-2.771,0.198-5.63,0.554-8.417l-0.175,0.042c-0.352,2.774-0.548,5.618-0.548,8.375c0,0.125,0,0.249,0.001,0.372
			c0.034,5.109,0.746,10.171,2.107,15.117l0.187,0.042c-1.374-4.958-2.091-10.036-2.125-15.16
			C369.343,233.117,369.343,232.993,369.343,232.87z M376.683,222.812l-0.168,0.041c0.007,0.68,0.02,1.363,0.043,2.041
			c0.313,9.147,2.143,17.85,5.498,25.959l0.201,0.046c-3.376-8.121-5.218-16.841-5.531-26.011
			C376.702,224.199,376.689,223.503,376.683,222.812z M373.201,227.289c0-1.217,0.03-2.437,0.091-3.657l-0.17,0.041
			c-0.06,1.207-0.089,2.413-0.089,3.616c0,0.557,0.006,1.113,0.018,1.668c0.15,7.1,1.378,14.042,3.691,20.654l0.192,0.044
			c-2.329-6.623-3.565-13.583-3.717-20.702C373.207,228.4,373.201,227.845,373.201,227.289z"/>
	</g>
	<g>
		<g>
			<path fill="#97A3AC" d="M387.457,237.456c0,0.341-0.276,0.617-0.617,0.617h-3.359c-0.34,0-0.616-0.276-0.616-0.617v-3.358
				c0-0.341,0.275-0.617,0.616-0.617h3.359c0.341,0,0.617,0.276,0.617,0.617V237.456z"/>
			<g>
				
					<radialGradient id="SVGID_1_" cx="1001.6533" cy="287.5176" r="2.3451" gradientTransform="matrix(1 0 0 1 -617 -52.5)" gradientUnits="userSpaceOnUse">
					<stop  offset="0" style="stop-color:#DAE3E7"/>
					<stop  offset="0.1193" style="stop-color:#D2DBE0"/>
					<stop  offset="0.3149" style="stop-color:#BBC7CD"/>
					<stop  offset="0.5625" style="stop-color:#98A5AD"/>
					<stop  offset="0.8496" style="stop-color:#6D7B83"/>
					<stop  offset="1" style="stop-color:#55626A"/>
				</radialGradient>
				<path fill="url(#SVGID_1_)" d="M387.271,235.776c0,1.173-0.949,2.122-2.121,2.122c-1.171,0-2.121-0.949-2.121-2.122
					c0-1.171,0.95-2.121,2.121-2.121C386.322,233.655,387.271,234.605,387.271,235.776z"/>
				<path opacity="0.23" fill="#DAE3E7" enable-background="new    " d="M386.58,234.193c0.334,0.375,0.537,0.868,0.537,1.409
					c0,1.171-0.95,2.122-2.121,2.122c-0.542,0-1.035-0.203-1.41-0.537c0.389,0.437,0.954,0.712,1.585,0.712
					c1.171,0,2.121-0.949,2.121-2.122C387.292,235.147,387.018,234.581,386.58,234.193z"/>
				<path opacity="0.39" fill="#FFFFFF" enable-background="new    " d="M386.139,234.595c0.127-0.131,0.273-0.25,0.442-0.354
					c0,0-0.287-0.261-0.726-0.417c0,0-0.691,0.677-0.793,0.955c-0.005,0.014-0.011,0.032-0.017,0.051
					c-0.2-0.152-0.448-0.243-0.717-0.243c-0.667,0-1.207,0.556-1.207,1.241c0,0.655,0.493,1.19,1.117,1.237
					c-0.196,0.199-0.391,0.334-0.391,0.334s0.404,0.295,0.59,0.382c0,0,0.421-0.035,0.91-0.919c0.19,0.131,0.421,0.207,0.667,0.207
					c0.667,0,1.207-0.556,1.207-1.241C387.223,235.186,386.748,234.658,386.139,234.595z M384.304,236.341
					c-0.28,0-0.507-0.233-0.507-0.521s0.227-0.52,0.507-0.52c0.279,0,0.506,0.232,0.506,0.52S384.583,236.341,384.304,236.341z
					 M386.008,236.341c-0.279,0-0.506-0.233-0.506-0.521s0.227-0.52,0.506-0.52s0.506,0.232,0.506,0.52
					S386.287,236.341,386.008,236.341z"/>
				
					<radialGradient id="SVGID_2_" cx="1002.3926" cy="288.5469" r="1.8437" gradientTransform="matrix(1 0 0 1 -617 -52.5)" gradientUnits="userSpaceOnUse">
					<stop  offset="0.5824" style="stop-color:#6A7982"/>
					<stop  offset="0.66" style="stop-color:#6C7B84"/>
					<stop  offset="0.7268" style="stop-color:#74838C"/>
					<stop  offset="0.7897" style="stop-color:#83919A"/>
					<stop  offset="0.8501" style="stop-color:#98A5AD"/>
					<stop  offset="0.9089" style="stop-color:#B6C1C7"/>
					<stop  offset="0.9655" style="stop-color:#DCE2E6"/>
					<stop  offset="1" style="stop-color:#FFFFFF"/>
				</radialGradient>
				<path opacity="0.92" fill="url(#SVGID_2_)" enable-background="new    " d="M383.972,236.226
					c-0.075-0.091-0.12-0.208-0.12-0.336c0-0.289,0.226-0.521,0.505-0.521c0.12,0,0.23,0.043,0.317,0.115
					c-0.093-0.113-0.231-0.184-0.386-0.184c-0.28,0-0.507,0.233-0.507,0.521C383.781,235.984,383.855,236.13,383.972,236.226z
					 M385.676,236.226c-0.075-0.091-0.12-0.208-0.12-0.336c0-0.289,0.227-0.521,0.506-0.521c0.119,0,0.229,0.043,0.316,0.115
					c-0.093-0.113-0.231-0.184-0.386-0.184c-0.28,0-0.506,0.233-0.506,0.521C385.486,235.984,385.56,236.13,385.676,236.226z
					 M384.224,237.065c-0.273-0.021-0.521-0.136-0.715-0.313c0.174,0.187,0.402,0.318,0.66,0.366
					C384.188,237.102,384.205,237.084,384.224,237.065z M386.875,234.974c0.205,0.222,0.331,0.523,0.331,0.854
					c0,0.685-0.539,1.242-1.206,1.242c-0.247,0-0.476-0.076-0.667-0.207c-0.489,0.883-0.911,0.918-0.911,0.918
					c-0.133-0.063-0.377-0.23-0.507-0.322c-0.008,0.007-0.013,0.011-0.013,0.011s0.404,0.295,0.59,0.381
					c0,0,0.422-0.034,0.911-0.918c0.191,0.131,0.42,0.207,0.667,0.207c0.666,0,1.206-0.556,1.206-1.241
					C387.276,235.531,387.122,235.201,386.875,234.974z M386.635,234.31c0,0-0.026-0.025-0.078-0.065
					c-0.166,0.104-0.31,0.221-0.434,0.348c0.042,0.004,0.081,0.011,0.121,0.02C386.359,234.502,386.488,234.4,386.635,234.31z"/>
			</g>
		</g>
	</g>
</g>
</svg>
