<?xml version="1.0" encoding="utf-8"?>
<!-- Generator: Adobe Illustrator 16.0.0, SVG Export Plug-In . SVG Version: 6.00 Build 0)  -->
<!DOCTYPE svg PUBLIC "-//W3C//DTD SVG 1.1//EN" "http://www.w3.org/Graphics/SVG/1.1/DTD/svg11.dtd">
<svg version="1.1" id="Capa_1" xmlns:sketch="http://www.bohemiancoding.com/sketch/ns"
	 xmlns="http://www.w3.org/2000/svg" xmlns:xlink="http://www.w3.org/1999/xlink" x="0px" y="0px" width="71.452px" height="31.4px"
	 viewBox="339.273 219.865 71.452 31.4" enable-background="new 339.273 219.865 71.452 31.4" xml:space="preserve">
<title>Slice 1</title>
<desc>Created with Sketch.</desc>
<path fill="#F3B732" d="M350.578,223.633v6.141l-3.364-5.331l1.758,5.917l-4.717-4.34l3.377,5.261l-5.778-3.042l4.717,4.34
	l-6.42-1.619l5.778,3.057h-6.657l6.419,1.619l-6.419,1.521h6.657l-5.792,2.986l6.419-1.619l-4.703,4.354l5.777-3.043l-3.377,5.262
	l4.717-4.34l-1.758,5.903l3.363-5.317v6.099l1.619-5.666c-0.448-2.017-0.677-4.075-0.684-6.141c0.004-2.08,0.233-4.152,0.684-6.183
	L350.578,223.633z"/>
<path fill="#234270" d="M354.415,224.038l-0.321,0.796c-0.597,1.478-1.063,3.004-1.396,4.563c-0.47,2.027-0.713,4.102-0.726,6.183
	c-0.01,2.063,0.205,4.123,0.642,6.141c0.333,1.563,0.799,3.095,1.396,4.577l0.321,0.781c0.638,1.455,1.394,2.855,2.261,4.188
	c-0.93-1.964-1.686-4.004-2.261-6.099c-1.725-6.271-1.725-12.891,0-19.161c0.58-2.106,1.336-4.161,2.261-6.141
	c-0.85,1.341-1.605,2.74-2.261,4.187L354.415,224.038z M362.3,229.215h-1.619v12.56h1.619v-7.857
	c-0.074-1.067,0.255-2.123,0.921-2.959c0.526-0.551,1.262-0.851,2.023-0.823c1.693,0,2.54,0.972,2.54,2.917v8.723h1.633v-8.82
	c0.053-0.918-0.155-1.833-0.6-2.637c-0.726-0.989-1.92-1.52-3.14-1.396c-1.323,0.028-2.554,0.68-3.322,1.758v-1.465L362.3,229.215
	L362.3,229.215L362.3,229.215z M373.102,234.7l-0.544,0.181c-1.412,0.545-2.297,1.952-2.177,3.461
	c-0.047,0.979,0.283,1.938,0.921,2.68c0.352,0.352,0.776,0.622,1.242,0.796c0.504,0.164,1.033,0.244,1.563,0.237
	c1.515,0.098,2.977-0.58,3.88-1.801v1.521h1.702l-0.195-9.504c0.109-1.197-0.536-2.337-1.618-2.861
	c-0.834-0.35-1.735-0.507-2.638-0.46c-0.966-0.037-1.926,0.17-2.791,0.6c-0.114,0.054-0.221,0.119-0.321,0.195
	c-0.917,0.536-1.48,1.52-1.479,2.582h1.758c-0.02-0.167-0.02-0.335,0-0.502c0.076-0.471,0.344-0.891,0.74-1.158
	c0.55-0.399,1.22-0.597,1.898-0.558c0.812-0.094,1.619,0.213,2.163,0.824c0.45,0.632,0.663,1.403,0.601,2.177v1.061l-4.843,0.516
	L373.102,234.7z M377.944,237.589c0.003,0.853-0.37,1.665-1.019,2.219c-0.64,0.629-1.504,0.977-2.4,0.963
	c-0.694,0.04-1.369-0.23-1.842-0.739c-0.054-0.055-0.101-0.115-0.14-0.182c-0.325-0.491-0.486-1.072-0.46-1.661
	c-0.022-0.544,0.14-1.08,0.46-1.521c0.394-0.528,0.972-0.892,1.619-1.019l3.782-0.321V237.589L377.944,237.589z M384.07,226.536
	h-1.549v2.679h-2.219v1.158h2.219v9.029c-0.051,0.656,0.165,1.306,0.601,1.8c0.655,0.468,1.459,0.682,2.261,0.601l1.479-0.027
	v-1.298l-1.297,0.083c-0.614,0-1.02-0.139-1.2-0.418c-0.235-0.521-0.332-1.093-0.279-1.661v-8.066h2.791v-1.2h-2.805L384.07,226.536
	L384.07,226.536z"/>
<path fill="#234270" d="M390.044,229.201h-1.787v12.616h1.787V229.201z M388.257,226.536v1.842h1.787v-1.842H388.257z
	 M392.961,229.257h-1.801l4.117,12.561h1.828l4.075-12.561h-1.535l-3.363,10.62h-0.042L392.961,229.257L392.961,229.257z"/>
<path fill="#234270" d="M408.382,230.959c0.42,0.645,0.615,1.41,0.558,2.177v1.061l-4.843,0.516
	c-1.721,0.329-2.921,1.895-2.791,3.642c-0.149,1.898,1.27,3.558,3.167,3.707c0.209,0.017,0.42,0.014,0.629-0.008
	c1.505,0.104,2.957-0.576,3.838-1.801h0.084v1.521h1.702c-0.083-0.991-0.14-2.052-0.14-3.182v-6.294
	c0-2.214-1.433-3.326-4.298-3.335c-1.103-0.051-2.195,0.226-3.141,0.795c-0.879,0.563-1.406,1.538-1.395,2.582h1.758
	c-0.042-0.651,0.253-1.278,0.781-1.661c0.563-0.403,1.249-0.601,1.94-0.558c0.814-0.082,1.62,0.223,2.177,0.824L408.382,230.959z
	 M405.59,240.84c-0.737,0.06-1.463-0.211-1.981-0.739c-0.413-0.522-0.626-1.176-0.6-1.842c-0.058-1.254,0.839-2.349,2.079-2.541
	l3.782-0.321v2.191c0.012,0.843-0.34,1.65-0.964,2.219c-0.641,0.627-1.504,0.973-2.4,0.963L405.59,240.84z"/>
<path fill="#F3B732" d="M391.16,245.46h0.6l0.279-1.619l1.619,1.897l0.461-2.86h-0.517l-0.321,1.604l-1.619-1.884L391.16,245.46
	L391.16,245.46z"/>
<path fill="#F3B732" d="M399.422,243.604c0.17-0.172,0.401-0.267,0.643-0.265c0.231-0.02,0.457,0.08,0.6,0.265l0.182,0.182
	l0.083-0.642l-0.837-0.237c-0.386-0.009-0.761,0.12-1.061,0.362c-0.316,0.206-0.522,0.545-0.559,0.921v0.182
	c0.001,0.28,0.117,0.548,0.321,0.739c0.237,0.253,0.575,0.387,0.921,0.363l0.88-0.237l0.139-0.698l-0.279,0.237l-0.74,0.279
	l-0.558-0.237c-0.152-0.16-0.219-0.382-0.182-0.6l0.419-0.559L399.422,243.604z"/>
<path fill="#F3B732" d="M395.682,244.762h0.879l0.182,0.685h0.6l-0.879-2.861l-1.8,2.861h0.572l0.419-0.685H395.682z
	 M396.282,243.785l0.14,0.502h-0.419L396.282,243.785z"/>
<path fill="#F3B732" d="M406.483,243.171c-0.229-0.264-0.573-0.399-0.921-0.363c-0.386-0.009-0.762,0.119-1.061,0.363
	c-0.309,0.202-0.524,0.518-0.601,0.879c-0.063,0.347,0.039,0.704,0.279,0.963c0.258,0.249,0.605,0.38,0.963,0.363l1.061-0.321
	l0.601-0.921C406.871,243.779,406.749,243.415,406.483,243.171z M406.064,243.492c0.179,0.125,0.252,0.352,0.182,0.558l-0.363,0.601
	c-0.18,0.183-0.427,0.284-0.684,0.279c-0.213,0.014-0.42-0.073-0.558-0.237c-0.154-0.159-0.222-0.383-0.182-0.601l0.362-0.558
	c0.193-0.171,0.44-0.265,0.697-0.266c0.211-0.016,0.417,0.066,0.559,0.224H406.064L406.064,243.492z"/>
<path fill="#F3B732" d="M402.422,242.878l-0.46,2.582h0.558l0.405-2.582H402.422z M410.684,242.878h-0.558l-0.266,1.604l-1.66-1.884
	l-0.475,2.861h0.559l0.278-1.619l1.605,1.897L410.684,242.878L410.684,242.878z"/>
</svg>
