<?xml version="1.0" encoding="utf-8"?>
<!-- Generator: Adobe Illustrator 16.0.0, SVG Export Plug-In . SVG Version: 6.00 Build 0)  -->
<!DOCTYPE svg PUBLIC "-//W3C//DTD SVG 1.1//EN" "http://www.w3.org/Graphics/SVG/1.1/DTD/svg11.dtd">
<svg version="1.1" id="Capa_1" xmlns:sketch="http://www.bohemiancoding.com/sketch/ns"
	 xmlns="http://www.w3.org/2000/svg" xmlns:xlink="http://www.w3.org/1999/xlink" x="0px" y="0px" width="73.44px"
	 height="73.386px" viewBox="24.906 -16.726 73.44 73.386" enable-background="new 24.906 -16.726 73.44 73.386"
	 xml:space="preserve">
<title>Slice 1</title>
<desc>Created with Sketch.</desc>
<g>
	<path fill-rule="evenodd" clip-rule="evenodd" fill="#FEFEFD" d="M61.608,56.66c20.24-0.019,36.744-16.517,36.738-36.724
		c-0.006-20.125-16.518-36.638-36.66-36.663C41.327-16.751,24.894-0.251,24.906,20.202C24.917,40.183,41.524,56.679,61.608,56.66z"
		/>
	<path fill-rule="evenodd" clip-rule="evenodd" fill="#FEEF02" d="M61.608,56.66c-20.084,0.019-36.691-16.478-36.702-36.458
		C24.894-0.251,41.327-16.751,61.687-16.726c20.142,0.025,36.654,16.538,36.66,36.663C98.352,40.144,81.848,56.642,61.608,56.66z
		 M90.394,14.498c0.024-0.258,0.013-0.314,0.036-0.343c0.111-0.142,0.234-0.273,0.35-0.412c1.833-2.223,2.451-4.685,1.351-7.426
		c-1.074-2.677-3.314-3.846-5.978-4.239c-2.69-0.397-5.289,0.18-7.775,1.223c-0.824,0.345-1.246,0.375-1.444-0.706
		c-0.316-1.721-0.829-3.406-1.265-5.105c-0.433-1.686-1.057-2.077-2.741-1.67c-1.311,0.316-2.607,0.689-3.915,1.021
		c-9.327,2.375-18.656,4.741-27.982,7.12c-1.955,0.499-2.199,0.935-1.684,2.865c0.487,1.826,0.939,3.663,1.491,5.468
		c0.212,0.692,0.021,0.84-0.611,0.94c-3.647,0.578-7.184,1.665-10.799,2.387c-0.962,0.192-1.065,0.576-0.839,1.425
		c1.038,3.912,2.024,7.838,3.03,11.758c0.087,0.343,0.404,0.791,0.126,1.021c-1.764,1.462,0.034,1.59,0.761,1.92
		c5.98,2.715,11.974,5.403,17.995,8.026c0.915,0.399,1.075,0.807,0.807,1.69c-0.352,1.158-0.599,2.352-0.833,3.541
		c-0.084,0.429-0.075,0.925,0.408,1.196c0.48,0.27,0.976,0.224,1.4-0.092c1.049-0.777,2.227-1.435,2.404-2.962
		c0.136-1.17,0.767-1.218,1.771-0.766c3.773,1.699,7.588,3.305,11.376,4.968c1.262,0.555,2.184,0.322,3.028-0.828
		c2.585-3.522,5.289-6.958,7.86-10.49c1.729-2.377,3.345-4.78,6.515-5.465c0.851-0.184,1.144-1.241,1.378-1.958
		c0.262-0.802-0.875-0.636-1.349-1.095c0.901-1.198,1.789-2.384,2.683-3.565c2.173-2.875,4.348-5.749,6.522-8.623
		c0.309-0.408,0.608-0.858,0.263-1.347c-0.316-0.448-0.795-0.254-1.24-0.15C92.492,14.062,91.485,14.264,90.394,14.498z"/>
	<path fill-rule="evenodd" clip-rule="evenodd" fill="#FBF7F8" d="M90.394,14.498c1.091-0.234,2.098-0.437,3.099-0.67
		c0.445-0.104,0.924-0.298,1.24,0.15c0.346,0.488,0.046,0.938-0.263,1.347c-2.175,2.874-4.35,5.748-6.522,8.623
		c-0.894,1.182-1.781,2.367-2.683,3.565c0.474,0.459,1.61,0.293,1.349,1.095c-0.234,0.717-0.527,1.774-1.378,1.958
		c-3.17,0.685-4.785,3.088-6.515,5.465c-2.571,3.532-5.275,6.968-7.86,10.49c-0.845,1.15-1.767,1.383-3.028,0.828
		c-3.788-1.663-7.603-3.269-11.376-4.968c-1.004-0.452-1.635-0.404-1.771,0.766c-0.177,1.527-1.354,2.185-2.404,2.962
		c-0.424,0.315-0.92,0.361-1.4,0.092c-0.483-0.271-0.493-0.768-0.408-1.196c0.233-1.189,0.48-2.383,0.833-3.541
		c0.269-0.884,0.108-1.291-0.807-1.69c-6.021-2.623-12.014-5.312-17.995-8.026c-0.727-0.33-2.525-0.458-0.761-1.92
		c0.278-0.23-0.039-0.679-0.126-1.021c-1.006-3.92-1.992-7.846-3.03-11.758c-0.226-0.849-0.123-1.233,0.839-1.425
		c3.615-0.722,7.151-1.809,10.799-2.387c0.633-0.101,0.824-0.249,0.611-0.94c-0.552-1.806-1.004-3.643-1.491-5.468
		c-0.515-1.93-0.271-2.366,1.684-2.865c9.326-2.379,18.655-4.746,27.982-7.12c1.308-0.333,2.604-0.706,3.915-1.021
		c1.685-0.407,2.309-0.016,2.741,1.67c0.436,1.699,0.948,3.384,1.265,5.105c0.198,1.081,0.62,1.051,1.444,0.706
		c2.486-1.043,5.085-1.621,7.775-1.223c2.663,0.394,4.903,1.563,5.978,4.239c1.101,2.741,0.482,5.203-1.351,7.426
		c-0.115,0.139-0.238,0.271-0.35,0.412C90.407,14.184,90.419,14.24,90.394,14.498z M44.678,25.692
		c0.875-0.206,1.768-0.354,2.618-0.633c1.045-0.344,2.592,0.008,2.696-1.805c0.007-0.123,0.444-0.252,0.697-0.324
		c0.647-0.188,1.296-0.383,1.958-0.506c1.086-0.2,2.265-1.166,3.198,0.326c0.059,0.094,0.346,0.11,0.502,0.069
		c1.752-0.454,3.499-0.925,5.269-1.398c-0.177-0.592-0.728-0.753-0.735-1.253c3.661,0.726,7.039,0.322,9.468-0.915
		c0.633-0.323,0.946-1.706,2.289-0.654c0.492,0.384,2.128-0.282,2.944-0.878c0.491-0.358-0.183-1.4-0.341-2.133
		c-0.031-0.146-0.043-0.239,0.223-0.421c0.922,0.528,1.871,1.289,3.059,1.369c3.685,0.246,7.221-0.392,10.337-2.407
		c2.228-1.441,2.875-3.781,2.435-6.307c-0.417-2.395-1.961-3.908-4.337-4.467c-3.172-0.746-6.164-0.065-9.034,1.304
		c-2.441,1.164-3.85,3.069-3.906,5.826c-0.014,0.636-0.239,0.848-0.819,0.97c-1.716,0.362-3.406,0.869-5.135,1.147
		c-1.328,0.214-1.542,0.729-1.156,1.964c0.267,0.855,0.552,1.139,1.386,0.847c0.373-0.131,0.763-0.287,1.171-0.095
		c-0.665,1.825-3.842,2.503-5.332,1.143c-1.223-1.118-1.462-3.428-0.485-4.703c0.978-1.276,3.105-1.665,4.512-0.714
		c0.519,0.352,0.913,0.428,1.473,0.218c0.588-0.219,1.227-0.3,1.816-0.514c0.689-0.249,1.928-0.097,1.96-0.79
		c0.042-0.928-0.991-1.541-1.849-1.956c-0.597-0.29-1.269-0.501-1.927-0.578c-1.99-0.229-3.972-0.059-5.877,0.569
		c-4.858,1.601-6.601,4.117-6.033,8.868c-0.841-0.915-1.542-1.716-2.285-2.476c-1.033-1.057-1.747-2.815-3.078-3.077
		c-1.365-0.268-2.935,0.621-4.435,0.885c-0.834,0.146-1.113,0.566-1.228,1.327c-0.156,1.038-0.406,2.061-0.661,3.311
		c-1.605-2.275-3.698-2.63-5.993-2.321c-3.13,0.422-6.126,1.446-9.199,2.126c-0.802,0.177-0.663,0.644-0.514,1.214
		c0.693,2.655,1.369,5.314,2.035,7.976c0.709,2.841,0.701,2.843,3.575,2.172c2.598-0.606,2.645-0.618,1.977-3.134
		c-0.244-0.916,0.045-1.122,0.864-1.351c2.175-0.606,4.528-0.799,6.447-2.829c-0.295,1.839-0.529,3.297-0.763,4.755
		c-0.038,0.068-0.075,0.137-0.113,0.204C44.46,25.66,44.569,25.677,44.678,25.692z M60.511,35.816l0.009-0.012
		c0.862-1.759,2.517-2.741,3.906-3.983c0.291-0.261,0.741-0.613,1.016-0.106c0.227,0.413-0.363,0.515-0.614,0.71
		c-1.455,1.133-2.306,2.598-2.729,4.406c2.349-0.271,1.382-3.27,3.446-3.733c0.172,0.846-0.513,1.527-0.317,2.48
		c0.489-0.602,0.896-1.076,1.274-1.573c1.033-1.361,1.926-2.845,3.267-3.944c0.427-0.35,0.902-1.122,1.401-0.775
		c0.481,0.335,0.241,1.185,0.048,1.779c-0.102,0.318-0.202,1.312-0.806,0.235c-0.005-0.009-0.304,0.106-0.427,0.21
		c-0.884,0.734-1.313,2.356-0.926,3.506c2.713-1.8,3.968-5.136,7.179-6.918c-0.476,1.713-1.451,2.899-1.473,4.598
		c2.419-2.171,4.18-4.504,5.212-7.39c0.819-2.291,2.423-4.1,3.887-6.106c0.505,1.221,0.587,1.549,0.125,2.047
		c-2.213,2.385-3.205,5.386-4.279,8.343c-0.229,0.631-0.948,1.589-0.288,1.918c0.673,0.335,1.563-0.407,2.176-1.028
		c0.156-0.158,0.266-0.362,0.402-0.541c1.254-1.65,2.512-3.298,3.765-4.949c2.419-3.187,4.835-6.375,7.373-9.723
		c-0.387,0.065-0.56,0.082-0.726,0.125c-3.744,0.97-7.488,1.942-11.231,2.917c-0.38,0.099-0.955,0.428-1.114,0.045
		c-0.651-1.554-2.253-0.638-3.183-1.667c-0.095,0.867,0.271,1.608-0.416,1.896c-1.362,0.573-2.798,1.14-4.271,1
		c-0.616-0.059-0.992,0.026-1.43,0.321c-2.224,1.5-4.669,2.052-7.322,1.706c-0.307-0.04-0.634-0.201-0.899,0.063
		c-1.637,1.627-3.915,1.366-5.888,1.994c-0.534,0.171-1.191,0.107-1.473-0.395c-0.443-0.792-1.009-0.544-1.604-0.388
		c-0.739,0.195-1.469,0.42-2.209,0.61c-0.423,0.107-0.724,0.269-0.779,0.771c-0.107,0.978-0.846,1.295-1.67,1.517
		c-0.954,0.256-2.339,0.247-2.756,0.872c-0.743,1.115-1.772,1.034-2.718,1.328c-1.373,0.428-2.786,0.725-4.179,1.087
		c-1.937,0.506-3.87,1.021-6.147,1.623c3.268,1.454,6.183,2.748,9.096,4.046c3.532,1.575,7.058,3.16,10.6,4.711
		c0.304,0.134,0.811,0.741,1.029-0.083c0.353-1.331,0.874-2.628,0.996-4.061c-0.92,0.131-1.348,0.976-2.224,1.219
		c0.059-1.262,0.89-1.875,1.792-2.364c2.263-1.227,2.141-3.669,3.058-5.601c-1.014,0.356-1.896,0.798-2.766,1.264
		c-0.836,0.448-1.658,0.922-2.692,1.5c0.132-1.127,0.654-1.625,1.296-2.077c1.483-1.041,3.146-1.746,4.75-2.559
		c0.489-0.246,0.916-0.467,1.206-0.995c0.422-0.768,1.316-0.925,2.062-1.148c0.415-0.125,0.058,0.377,0.125,0.581
		c-0.081,0.111-0.135,0.231,0.012,0.321c0.024,0.014,0.12-0.09,0.182-0.139c2.963-1.046,5.927-2.093,8.89-3.137
		c0.266-0.094,0.496-0.508,0.816-0.162c0.261,0.283,0.07,0.624-0.065,0.886c-0.438,0.843-1.15,1.323-2.07,1.594
		c-2.757,0.813-5.5,1.678-8.248,2.523c-0.57,0.176-1.163,0.398-1.427,0.947c-0.628,1.307-1.257,2.622-1.656,4.072
		c1.224,0.15,1.884-0.915,3.055-1.143c-0.405,0.915-0.535,1.901-1.417,2.043c-2.33,0.375-3.02,2.051-3.527,3.983
		c-0.216,0.823-0.508,1.634-0.846,2.414c-0.337,0.775-0.169,1.141,0.637,1.49c4.125,1.787,8.23,3.619,12.314,5.497
		c0.867,0.397,1.308,0.255,1.872-0.504c3.011-4.045,6.092-8.039,9.129-12.064c0.239-0.316,0.705-0.584,0.514-1.146
		c-0.604-0.088-1.198,0.627-1.774,0.018c-0.509-0.538-0.127-1.283-0.313-1.874c-0.567-0.057-0.675,0.353-0.887,0.616
		c-0.594,0.736-1.188,1.472-1.767,2.219c-0.328,0.425-0.729,0.468-1.203,0.327c-0.531-0.158-0.467-0.569-0.468-0.981
		c-0.002-0.364,0.193-0.761-0.124-1.201c-0.499,0.561-0.938,1.061-1.386,1.553c-0.453,0.5-0.914,0.992-1.374,1.486
		c-0.595,0.639-1.202,1.215-2.197,1.067c-0.969-0.143-0.589-1.157-1.089-1.687c-0.797,0.95-1.534,1.854-2.304,2.728
		c-0.209,0.237-0.651,0.739-0.826,0.304c-0.4-0.996-0.71-0.197-1.001-0.029c-0.347,0.201-0.627,0.511-0.948,0.759
		c-0.324,0.249-0.688,0.526-1.101,0.298c-0.509-0.281-0.249-0.78-0.259-1.214C60.585,36.6,61.277,36.146,60.511,35.816z
		 M45.545,14.506c0.122-0.495,0.279-0.883,0.304-1.278c0.07-1.125,0.663-1.652,1.747-1.88c1.405-0.295,2.792-0.693,4.165-1.119
		c0.815-0.253,1.385-0.011,1.912,0.584c0.875,0.989,1.77,1.958,2.699,2.984c1.094-2.794,1.482-3.444,2.638-4.475
		c3.25-2.897,9.694-3.796,13.555-1.823c0.618,0.315,0.845,0.211,1.126-0.333c0.461-0.892,1.109-1.645,1.934-2.22
		c0.48-0.334,0.582-0.702,0.425-1.27c-0.561-2.036-1.084-4.083-1.592-6.134c-0.15-0.609-0.395-0.757-1.033-0.591
		C62.677-0.266,51.927,2.5,41.169,5.239c-0.807,0.206-0.846,0.604-0.66,1.254c0.358,1.253,0.764,2.499,1.015,3.774
		c0.357,1.814,0.782,3.487,3.042,3.739C44.855,14.038,45.12,14.281,45.545,14.506z"/>
	<path fill-rule="evenodd" clip-rule="evenodd" fill="#EB058E" d="M61.448,25.123c-0.065-0.204,0.292-0.706-0.124-0.581
		c-0.746,0.224-1.64,0.381-2.062,1.148c-0.29,0.528-0.717,0.749-1.206,0.995c-1.604,0.813-3.266,1.518-4.75,2.559
		c-0.642,0.452-1.164,0.95-1.296,2.077c1.034-0.578,1.856-1.052,2.692-1.5c0.87-0.466,1.752-0.907,2.766-1.264
		c-0.917,1.932-0.795,4.374-3.058,5.601c-0.903,0.489-1.734,1.103-1.792,2.364c0.876-0.243,1.303-1.088,2.224-1.219
		c-0.122,1.433-0.643,2.729-0.996,4.061c-0.218,0.824-0.725,0.217-1.029,0.083c-3.542-1.551-7.067-3.136-10.6-4.711
		c-2.913-1.298-5.828-2.592-9.096-4.046c2.277-0.603,4.21-1.117,6.147-1.623c1.393-0.362,2.806-0.659,4.179-1.087
		c0.945-0.294,1.975-0.213,2.718-1.328c0.417-0.625,1.802-0.616,2.756-0.872c0.824-0.222,1.563-0.539,1.67-1.517
		c0.055-0.503,0.356-0.664,0.779-0.771c0.74-0.189,1.471-0.415,2.209-0.61c0.594-0.156,1.16-0.403,1.604,0.388
		c0.281,0.502,0.938,0.565,1.473,0.395c1.974-0.628,4.251-0.366,5.888-1.994c0.266-0.264,0.593-0.103,0.899-0.063
		c2.653,0.347,5.099-0.206,7.322-1.706c0.438-0.295,0.813-0.38,1.43-0.321c1.474,0.14,2.909-0.427,4.271-1
		c0.687-0.288,0.321-1.029,0.416-1.896c0.93,1.029,2.531,0.113,3.183,1.667c0.159,0.383,0.734,0.054,1.114-0.045
		c3.743-0.975,7.487-1.947,11.231-2.917c0.166-0.043,0.339-0.059,0.726-0.125c-2.538,3.348-4.954,6.536-7.373,9.723
		c-1.253,1.651-2.511,3.299-3.765,4.949c-0.137,0.179-0.246,0.383-0.402,0.541c-0.613,0.621-1.503,1.363-2.176,1.028
		c-0.66-0.329,0.06-1.287,0.288-1.918c1.074-2.957,2.066-5.958,4.279-8.343c0.462-0.498,0.38-0.827-0.125-2.047
		c-1.464,2.007-3.067,3.815-3.887,6.106c-1.032,2.886-2.793,5.219-5.212,7.39c0.021-1.698,0.997-2.885,1.473-4.598
		c-3.211,1.782-4.466,5.118-7.179,6.918c-0.388-1.149,0.042-2.771,0.926-3.506c0.123-0.104,0.422-0.219,0.427-0.21
		c0.604,1.076,0.704,0.083,0.806-0.235c0.193-0.595,0.434-1.444-0.048-1.779c-0.499-0.347-0.975,0.426-1.401,0.775
		c-1.341,1.1-2.233,2.583-3.267,3.944c-0.378,0.497-0.785,0.972-1.274,1.573c-0.195-0.953,0.489-1.635,0.317-2.48
		c-2.063,0.464-1.097,3.462-3.446,3.733c0.423-1.809,1.274-3.273,2.729-4.406c0.251-0.195,0.841-0.297,0.614-0.71
		c-0.274-0.507-0.725-0.154-1.016,0.106c-1.389,1.242-3.043,2.225-3.905,3.983l-0.047,0.033l0.037-0.021
		c0.766,0.329,0.074,0.783,0.082,1.172c0.01,0.434-0.25,0.933,0.259,1.214c0.413,0.229,0.777-0.049,1.101-0.298
		c0.321-0.248,0.601-0.558,0.948-0.759c0.291-0.168,0.601-0.967,1.001,0.029c0.175,0.436,0.617-0.066,0.826-0.304
		c0.77-0.874,1.507-1.777,2.304-2.728c0.5,0.529,0.12,1.544,1.089,1.687c0.995,0.147,1.603-0.429,2.197-1.067
		c0.46-0.494,0.921-0.986,1.374-1.486c0.447-0.492,0.887-0.992,1.386-1.553c0.317,0.44,0.122,0.837,0.124,1.201
		c0.001,0.412-0.063,0.823,0.468,0.981c0.474,0.141,0.875,0.098,1.203-0.327c0.578-0.747,1.173-1.482,1.767-2.219
		c0.212-0.264,0.319-0.673,0.887-0.616c0.187,0.591-0.195,1.336,0.313,1.874c0.576,0.609,1.17-0.105,1.774-0.018
		c0.191,0.562-0.274,0.829-0.514,1.146c-3.037,4.025-6.118,8.02-9.129,12.064c-0.564,0.759-1.005,0.901-1.872,0.504
		c-4.084-1.878-8.189-3.71-12.314-5.497c-0.806-0.35-0.974-0.715-0.637-1.49c0.338-0.78,0.63-1.591,0.846-2.414
		c0.507-1.933,1.197-3.608,3.527-3.983c0.882-0.142,1.012-1.128,1.417-2.043c-1.17,0.228-1.831,1.293-3.055,1.143
		c0.398-1.45,1.027-2.766,1.656-4.072c0.264-0.549,0.857-0.771,1.427-0.947c2.748-0.846,5.491-1.71,8.248-2.523
		c0.92-0.271,1.633-0.751,2.07-1.594c0.136-0.262,0.326-0.603,0.065-0.886c-0.32-0.346-0.551,0.068-0.816,0.162
		c-2.963,1.044-5.927,2.091-8.89,3.137C61.582,25.24,61.517,25.18,61.448,25.123z M66.501,29.868
		c1.016-0.253,1.577-0.999,2.241-1.62c0.289-0.271,0.325-0.725,0.042-0.957c-0.411-0.335-0.601,0.139-0.79,0.406
		C67.487,28.414,66.997,29.144,66.501,29.868z M76.622,25.104c-0.273,0.36-0.656,0.732-0.864,1.185
		c-0.123,0.268,0.144,0.677,0.499,0.616c0.606-0.105,0.785-0.654,0.88-1.183C77.183,25.455,77.058,25.201,76.622,25.104z
		 M59.759,36.212c-0.549,0.496-1.379,0.774-1.588,1.913C59.022,37.542,59.504,36.981,59.759,36.212z"/>
	<path fill-rule="evenodd" clip-rule="evenodd" fill="#045FAC" d="M44.463,25.44c0.234-1.458,0.468-2.917,0.764-4.755
		c-1.919,2.029-4.272,2.223-6.447,2.829c-0.819,0.229-1.107,0.435-0.864,1.351c0.668,2.516,0.621,2.527-1.977,3.134
		c-2.874,0.671-2.865,0.669-3.575-2.172c-0.666-2.661-1.342-5.321-2.035-7.976c-0.148-0.57-0.288-1.037,0.514-1.214
		c3.073-0.68,6.069-1.705,9.199-2.126c2.294-0.31,4.388,0.045,5.993,2.321c0.255-1.25,0.505-2.273,0.661-3.311
		c0.114-0.761,0.393-1.181,1.228-1.327c1.5-0.264,3.07-1.153,4.435-0.885c1.331,0.262,2.044,2.021,3.078,3.077
		c0.742,0.76,1.443,1.561,2.285,2.476c-0.568-4.75,1.174-7.267,6.033-8.868c1.905-0.628,3.887-0.798,5.877-0.569
		c0.658,0.076,1.33,0.288,1.927,0.578c0.857,0.415,1.891,1.028,1.849,1.956c-0.032,0.692-1.271,0.541-1.96,0.79
		c-0.59,0.213-1.229,0.294-1.816,0.514c-0.56,0.21-0.954,0.133-1.473-0.218c-1.406-0.951-3.534-0.562-4.512,0.714
		c-0.977,1.275-0.737,3.585,0.485,4.703c1.49,1.36,4.667,0.682,5.332-1.143c-0.408-0.192-0.798-0.036-1.171,0.095
		c-0.834,0.292-1.119,0.008-1.386-0.847c-0.386-1.235-0.172-1.75,1.156-1.964c1.729-0.279,3.419-0.786,5.135-1.147
		c0.58-0.122,0.806-0.334,0.819-0.97c0.057-2.757,1.465-4.663,3.906-5.826c2.87-1.369,5.862-2.05,9.034-1.304
		c2.376,0.559,3.92,2.072,4.337,4.467c0.44,2.525-0.207,4.865-2.435,6.307c-3.116,2.016-6.652,2.653-10.337,2.407
		c-1.188-0.08-2.137-0.84-3.059-1.369c-0.266,0.182-0.254,0.275-0.223,0.421c0.158,0.732,0.832,1.774,0.341,2.133
		c-0.816,0.596-2.452,1.262-2.944,0.878c-1.343-1.051-1.656,0.332-2.289,0.654c-2.429,1.237-5.807,1.641-9.468,0.915
		c0.007,0.5,0.559,0.661,0.735,1.253c-1.77,0.473-3.517,0.944-5.269,1.398c-0.157,0.041-0.443,0.025-0.502-0.069
		c-0.933-1.492-2.112-0.526-3.198-0.326c-0.662,0.123-1.311,0.318-1.958,0.506c-0.252,0.072-0.689,0.201-0.697,0.324
		c-0.104,1.813-1.651,1.461-2.696,1.805c-0.85,0.278-1.744,0.427-2.618,0.633C44.607,25.608,44.535,25.525,44.463,25.44z
		 M82.49,12.945c1.981-0.021,3.436-1.312,3.448-3.058c0.013-1.905-1.456-3.451-3.259-3.429c-1.923,0.024-3.329,1.287-3.338,2.996
		C79.332,11.483,80.668,12.965,82.49,12.945z M38.958,17.696c-0.544,0.137-1.231,0.369-1.937,0.471
		c-0.643,0.093-0.675,0.41-0.576,0.932c0.203,1.062,0.469,1.946,1.869,1.287c0.399-0.188,0.881-0.192,1.294-0.358
		c0.619-0.249,1.132-0.667,0.969-1.418C40.417,17.865,39.803,17.688,38.958,17.696z M50.242,19.814
		c0.935-0.207,1.678-0.375,2.424-0.535c0.456-0.097,0.664-0.285,0.299-0.717c-0.707-0.84-1.239-1.831-2.239-2.652
		C50.559,17.256,50.411,18.446,50.242,19.814z"/>
	<path fill-rule="evenodd" clip-rule="evenodd" fill="#EB038D" d="M45.545,14.506c-0.425-0.225-0.69-0.468-0.979-0.5
		c-2.26-0.251-2.685-1.924-3.042-3.739c-0.251-1.275-0.657-2.521-1.015-3.774c-0.186-0.649-0.147-1.048,0.66-1.254
		C51.927,2.5,62.677-0.266,73.424-3.05c0.639-0.166,0.883-0.018,1.033,0.591c0.508,2.05,1.031,4.098,1.592,6.134
		c0.157,0.567,0.056,0.935-0.425,1.27C74.8,5.52,74.151,6.273,73.69,7.165c-0.281,0.545-0.508,0.648-1.126,0.333
		c-3.861-1.973-10.306-1.074-13.555,1.823c-1.156,1.031-1.544,1.681-2.638,4.475c-0.929-1.025-1.824-1.995-2.699-2.984
		c-0.526-0.595-1.097-0.837-1.912-0.584c-1.373,0.425-2.76,0.824-4.165,1.119c-1.084,0.228-1.676,0.755-1.747,1.88
		C45.824,13.623,45.667,14.011,45.545,14.506z"/>
	<path fill-rule="evenodd" clip-rule="evenodd" fill="#EB058E" d="M61.643,25.306c-0.063,0.049-0.158,0.152-0.182,0.139
		c-0.147-0.09-0.092-0.21-0.012-0.321C61.517,25.18,61.582,25.24,61.643,25.306z"/>
	<path fill-rule="evenodd" clip-rule="evenodd" fill="#045FAC" d="M44.678,25.692c-0.109-0.016-0.219-0.032-0.328-0.048
		c0.038-0.067,0.075-0.136,0.112-0.204C44.535,25.525,44.607,25.608,44.678,25.692z"/>
	<path fill-rule="evenodd" clip-rule="evenodd" fill="#FBF7F8" d="M66.501,29.868c0.496-0.725,0.986-1.454,1.493-2.171
		c0.189-0.268,0.379-0.741,0.79-0.406c0.283,0.232,0.247,0.686-0.042,0.957C68.078,28.869,67.516,29.615,66.501,29.868z"/>
	<path fill-rule="evenodd" clip-rule="evenodd" fill="#FBF7F8" d="M76.622,25.104c0.437,0.097,0.562,0.351,0.515,0.618
		c-0.095,0.528-0.273,1.077-0.88,1.183c-0.355,0.061-0.622-0.349-0.499-0.616C75.966,25.837,76.348,25.465,76.622,25.104z"/>
	<path fill-rule="evenodd" clip-rule="evenodd" fill="#FBF7F8" d="M59.759,36.212c-0.255,0.77-0.737,1.33-1.588,1.913
		C58.38,36.986,59.21,36.708,59.759,36.212z"/>
	<polygon fill-rule="evenodd" clip-rule="evenodd" fill="#FBF7F8" points="60.511,35.816 60.474,35.838 60.521,35.805 	"/>
	<path fill-rule="evenodd" clip-rule="evenodd" fill="#FEFEFD" d="M82.49,12.945c-1.822,0.02-3.158-1.461-3.148-3.49
		c0.009-1.709,1.415-2.972,3.338-2.996c1.803-0.022,3.271,1.523,3.259,3.429C85.926,11.633,84.471,12.924,82.49,12.945z"/>
	<path fill-rule="evenodd" clip-rule="evenodd" fill="#FBF7F8" d="M38.958,17.696c0.845-0.008,1.459,0.169,1.62,0.913
		c0.163,0.751-0.351,1.169-0.969,1.418c-0.413,0.166-0.896,0.17-1.294,0.358c-1.4,0.659-1.667-0.225-1.869-1.287
		c-0.099-0.521-0.066-0.838,0.576-0.932C37.727,18.065,38.414,17.833,38.958,17.696z"/>
	<path fill-rule="evenodd" clip-rule="evenodd" fill="#FBF7F8" d="M50.242,19.814c0.169-1.368,0.317-2.558,0.484-3.904
		c1,0.821,1.532,1.812,2.239,2.652c0.365,0.433,0.157,0.62-0.299,0.717C51.92,19.439,51.177,19.607,50.242,19.814z"/>
</g>
</svg>
