<?xml version="1.0" encoding="utf-8"?>
<!-- Generator: Adobe Illustrator 16.0.0, SVG Export Plug-In . SVG Version: 6.00 Build 0)  -->
<!DOCTYPE svg PUBLIC "-//W3C//DTD SVG 1.1//EN" "http://www.w3.org/Graphics/SVG/1.1/DTD/svg11.dtd">
<svg version="1.1" id="Capa_1" xmlns:sketch="http://www.bohemiancoding.com/sketch/ns"
	 xmlns="http://www.w3.org/2000/svg" xmlns:xlink="http://www.w3.org/1999/xlink" x="0px" y="0px" width="142.645px" height="52px"
	 viewBox="-9.599 -3.5 142.645 52" enable-background="new -9.599 -3.5 142.645 52" xml:space="preserve">
<title>Slice 1</title>
<desc>Created with Sketch.</desc>
<g>
	<path fill="#262655" d="M87.686,16.631c-5.259,6.79-15.888,9.711-22.521,6.586c-4.75-2.236-6.321-6.738-3.995-11.445
		C64.226,5.591,72.809,0.919,79.849,1.606c-0.034,0.699-0.599,0.529-1.018,0.652c-3.479,1.032-6.936,5.133-7.277,8.746
		c-0.215,2.271,0.627,4.251,2.402,5.623c2.949,2.279,6.207,3.111,9.809,1.483C84.855,17.618,86.005,17.262,87.686,16.631z"/>
	<path fill="#262655" d="M101.525,32.59c-1.01,1.318-2.35,1.902-3.574,2.664c-0.983,0.614-2.471,1.015-1.52,2.775
		c0.213,0.394-0.089,0.896-0.354,1.297c-1.499,2.269-6.785,4.24-9.464,3.579c-0.54-0.135-0.675-0.37-0.501-0.802
		c0.527-1.312,0.791-2.903,2.871-2.532c0.687,0.123,1.578,0.171,1.86-0.718c0.248-0.776-0.559-1.121-0.979-1.593
		c-0.214-0.236-0.55-0.357-0.789-0.572c-3.432-3.113-3.331-4.839,0.605-7.209c2.563-1.543,5.273-2.84,7.881-4.316
		c1.041-0.587,1.577-0.063,2.156,0.655c0.491,0.608,1.55,1.079,0.211,1.938c-0.484,0.309-0.212,0.853,0.131,1.212
		c0.771,0.81,1.201,2.038,1.903,2.627c0.698,0.584,1.694-1.037,2.706-1.305c1.569-0.416,2.834-1.387,4.232-2.105
		c3.835-1.963,8.124-0.611,10.054,3.251c0.529,1.062,0.244,2.007-0.642,2.652c-2.852,2.068-5.826,3.995-9.236,4.955
		C105.832,39.957,101.726,36.453,101.525,32.59z M109.644,35.352c1.301-0.438,2.5-1.13,3.649-1.901
		c0.657-0.442,0.252-0.877-0.089-1.315c-1.262-1.62-2.245-1.69-4.637-0.175c-0.598,0.38-1.743,0.631-1.225,1.683
		C107.762,34.502,108.47,35.278,109.644,35.352z M94.477,29.933c-0.627,0.33-1.404,0.68-2.114,1.134
		c-0.723,0.459-1.888,0.813-0.991,2.043c0.682,0.935,1.351,2.065,2.771,0.896c0.449-0.371,1.021-0.596,1.503-0.934
		c0.548-0.385,1.554-0.598,1.109-1.543C96.372,30.713,95.686,30.046,94.477,29.933z"/>
	<path fill="#E41F20" d="M83.092,3.346c3.487-0.035,5.688,0.489,6.766,2.846c1.146,2.505,0.096,4.662-1.657,6.483
		c-2.53,2.63-5.658,3.874-9.312,3.573c-4.498-0.372-6.431-4.217-3.939-7.979C77.107,5.013,80.303,3.466,83.092,3.346z"/>
	<path fill="#262655" d="M56.421,30.473c0.121-3.029,1.91-3.304,4.231-3.16c2.775,0.173,5.577-0.08,8.353,0.082
		c2.817,0.166,3.417,1.242,2.438,3.883c-0.572,1.543-1.114,3.105-1.819,4.591c-0.798,1.685-2.145,2.697-4.11,2.703
		c-0.855,0.004-1.797,0.286-2.542,0.155c-2.897-0.504-3.988,1.065-4.675,3.453c-0.267,0.928-4.174,1.606-4.683,0.877
		c-0.331-0.472,0.09-0.883,0.248-1.292c1.168-3.03,2.369-6.046,3.534-9.078C58.044,30.997,58.021,30.989,56.421,30.473z
		 M61.147,35.19c3.381,0.616,4.031,0.326,4.95-2.296c0.251-0.709,1.107-1.834-0.211-2.093c-1.029-0.203-2.547-0.89-3.278,0.741
		C62.082,32.729,61.639,33.958,61.147,35.19z"/>
	<path fill="#E41F20" d="M39.796,27.361c1.859,0,3.727-0.12,5.572,0.029c2.606,0.211,3.233,1.277,2.377,3.703
		c-0.288,0.813-0.614,1.612-0.93,2.416c-1.843,4.661-2.663,5.374-7.66,5.224c-2.389-0.069-3.875,0.409-4.452,2.923
		c-0.307,1.338-3.437,2.283-4.617,1.55c-0.671-0.417-0.22-0.955-0.05-1.405c1.185-3.087,2.391-6.166,3.601-9.244
		c0.326-0.832,0.794-1.612-0.63-1.941c-0.852-0.195-0.351-0.912-0.158-1.288c0.407-0.796,0.27-2.071,1.765-2
		c1.725,0.08,3.455,0.019,5.183,0.019C39.796,27.353,39.796,27.356,39.796,27.361z M38.962,35.417
		c2.119-0.022,3.953-2.023,3.746-3.867c-0.067-0.585-0.437-0.715-0.937-0.814c-2.194-0.438-2.641-0.071-3.814,2.809
		C37.42,34.86,37.235,35.744,38.962,35.417z"/>
	<path fill="#262655" d="M82.526,27.345c0.795,0,1.589-0.002,2.385,0c2.913,0.012,2.982,0.046,1.632,2.719
		c-0.594,1.176-1.284,2.28-1.246,3.632c0.019,0.645-0.875,1.727,0.736,1.778c0.444,0.014,0.463,0.431,0.237,0.739
		c-0.588,0.812-0.337,2.251-1.534,2.531c-1.281,0.3-2.593,0.916-3.985,0.122c-0.46-0.262-1.164-0.104-1.759-0.118
		c-2.183-0.057-4.369-0.028-6.546-0.18c-1.729-0.121-2.563-1.648-1.657-3.098c1.027-1.646,1.563-3.471,2.218-5.245
		c0.406-1.099,0.966-1.783,2.093-2.055c0.897-0.214,1.767-0.656,2.668-0.724c1.579-0.12,3.173-0.034,4.762-0.034
		C82.526,27.391,82.526,27.369,82.526,27.345z M78.102,35.429c1.453,0.345,2.101-0.391,2.403-1.675
		c0.137-0.577,0.341-1.148,0.603-1.682c0.596-1.212,0.097-1.541-1.056-1.406c-0.587,0.07-1.236,0.011-1.746,0.251
		c-1.573,0.738-2.012,2.316-2.087,3.792C76.161,35.896,77.459,35.214,78.102,35.429z"/>
	<path fill="#E41F20" d="M23.471,38.729c-1.727,0-3.457,0.059-5.181-0.014c-2.341-0.101-3.098-1.195-2.394-3.403
		c0.382-1.199,0.933-2.347,1.306-3.55c0.974-3.143,3.318-4.347,6.351-4.454c2.454-0.087,4.915,0.048,7.371,0.006
		c1.165-0.019,1.409,0.404,0.99,1.423c-0.684,1.655-1.352,3.32-1.996,4.994c-0.204,0.531-0.591,1.276,0.26,1.503
		c1.039,0.276,1.078,0.796,0.692,1.58c-0.41,0.833-0.379,2.029-1.822,1.983c-1.859-0.059-3.719-0.016-5.579-0.016
		C23.471,38.769,23.471,38.748,23.471,38.729z M22.893,35.389c2.31,0.532,2.196-1.421,2.711-2.645
		c0.863-2.049,0.697-2.24-1.49-2.035c-0.33,0.032-0.666,0.071-0.976,0.179c-0.847,0.289-2.428,2.933-2.212,3.775
		C21.22,35.815,22.224,35.242,22.893,35.389z"/>
	<path fill="#E41F20" d="M6.575,38.796c-2.709,0.003-2.715,0.001-1.82-2.287c1.013-2.597,2.076-5.177,3.04-7.794
		c0.377-1.021,0.909-1.455,2.04-1.402c1.989,0.093,3.987-0.018,5.978,0.049c0.609,0.021,1.815-0.429,1.687,0.609
		c-0.117,0.961-0.208,2.316-1.577,2.715c-0.062,0.019-0.136,0.019-0.198,0.004c-3.824-0.808-4.953,1.72-5.781,4.644
		c-0.145,0.507-0.482,0.968-0.588,1.479C9.004,38.512,8.01,39.152,6.575,38.796z"/>
	<path fill="#E41F20" d="M52.922,27.378c2.682,0.004,2.676,0.002,1.785,2.185c-0.474,1.163-0.966,2.32-1.377,3.509
		c-0.301,0.875-1.337,1.891,0.555,2.433c0.822,0.234,0.083,1.024-0.075,1.518c-0.338,1.059-0.639,2.226-2.105,2.229
		c-3.272,0.009-5.299-1.864-3.687-4.837c0.83-1.529,1.459-3.2,1.944-4.874C50.471,27.772,51.377,26.938,52.922,27.378z"/>
	<path fill="#E41F20" d="M54.897,22.613c0.71,0.097,1.61,0.377,1.734,1.472c0.132,1.135-1.599,2.349-3.241,2.33
		c-0.97-0.013-1.929-0.15-1.977-1.437C51.371,23.801,53.012,22.622,54.897,22.613z"/>
	<path fill="#FFFFFD" d="M109.644,35.352c-1.174-0.073-1.88-0.85-2.301-1.709c-0.518-1.052,0.629-1.301,1.225-1.683
		c2.39-1.518,3.373-1.446,4.637,0.175c0.342,0.439,0.746,0.873,0.089,1.315C112.143,34.223,110.944,34.914,109.644,35.352z"/>
	<path fill="#FFFFFD" d="M94.477,29.933c1.21,0.113,1.895,0.78,2.278,1.598c0.442,0.945-0.563,1.156-1.111,1.541
		c-0.483,0.338-1.053,0.563-1.501,0.934c-1.42,1.17-2.089,0.039-2.772-0.896c-0.896-1.23,0.269-1.584,0.991-2.043
		C93.073,30.615,93.85,30.266,94.477,29.933z"/>
	<path fill="#FFFFFD" d="M61.147,35.19c0.49-1.232,0.935-2.461,1.464-3.647c0.729-1.631,2.248-0.944,3.277-0.741
		c1.319,0.259,0.46,1.384,0.211,2.093C65.179,35.517,64.528,35.807,61.147,35.19z"/>
	<path fill="#FFFFFD" d="M38.962,35.417c-1.727,0.327-1.542-0.56-1.007-1.874c1.172-2.882,1.62-3.246,3.814-2.809
		c0.5,0.099,0.87,0.227,0.937,0.813C42.915,33.394,41.08,35.393,38.962,35.417z"/>
	<path fill="#FFFFFD" d="M78.102,35.429c-0.643-0.212-1.941,0.468-1.883-0.719c0.074-1.475,0.515-3.054,2.086-3.79
		c0.51-0.241,1.16-0.179,1.746-0.252c1.151-0.136,1.649,0.194,1.056,1.406c-0.261,0.531-0.466,1.105-0.602,1.681
		C80.203,35.04,79.554,35.774,78.102,35.429z"/>
	<path fill="#FFFFFD" d="M22.893,35.389c-0.669-0.146-1.673,0.427-1.966-0.724c-0.215-0.841,1.365-3.485,2.213-3.777
		c0.31-0.105,0.646-0.146,0.976-0.176c2.188-0.206,2.353-0.017,1.491,2.035C25.089,33.968,25.203,35.922,22.893,35.389z"/>
</g>
</svg>
