<?xml version="1.0" encoding="utf-8"?>
<!-- Generator: Adobe Illustrator 16.0.0, SVG Export Plug-In . SVG Version: 6.00 Build 0)  -->
<!DOCTYPE svg PUBLIC "-//W3C//DTD SVG 1.1//EN" "http://www.w3.org/Graphics/SVG/1.1/DTD/svg11.dtd">
<svg version="1.1" id="Capa_1" xmlns:sketch="http://www.bohemiancoding.com/sketch/ns"
	 xmlns="http://www.w3.org/2000/svg" xmlns:xlink="http://www.w3.org/1999/xlink" x="0px" y="0px" width="51.145px" height="31.4px"
	 viewBox="349.792 219.954 51.145 31.4" enable-background="new 349.792 219.954 51.145 31.4" xml:space="preserve">
<title>Slice 1</title>
<desc>Created with Sketch.</desc>
<g>
	<path fill="#18609C" d="M399.682,251.354c-16.176,0-32.352,0-48.527,0c-0.896-0.442-1.299-1.16-1.296-2.16
		c0.015-4.627,0.011-9.253,0.014-13.879c0.333-0.009,0.666-0.024,0.999-0.024c16.672-0.003,33.345-0.006,50.018-0.009
		c0.016,0.155,0.044,0.31,0.044,0.465c0.003,4.444,0.004,8.891,0.002,13.336C400.936,250.068,400.661,250.907,399.682,251.354z
		 M366.181,239.528c0.42,1.146,1.173,1.771,2.354,1.875c1.208,0.105,2.245-0.197,3.061-1.134c0.081-0.094,0.165-0.276,0.317-0.197
		c0.165,0.086,0.087,0.273,0.061,0.419c-0.021,0.114-0.079,0.221-0.104,0.334c-0.066,0.303-0.007,0.465,0.371,0.478
		c1.296,0.042,1.308,0.06,1.605-1.202c0.055-0.236,0.121-0.354,0.36-0.34c1.108,0.069,2.173-0.038,3.127-0.867
		c0.012,0.724-0.265,1.264-0.325,1.841c-0.023,0.227-0.107,0.469,0.25,0.549c0.981,0.222,1.381-0.015,1.602-0.978
		c0.081-0.354,0.235-0.574,0.671-0.558c1.055,0.04,2.11,0.024,2.91-0.994c0.017,0.192,0.028,0.265,0.025,0.337
		c-0.018,0.533-0.311,0.991-0.407,1.508c-0.115,0.614-0.077,0.698,0.53,0.701c0.274,0.001,0.55-0.015,0.824-0.001
		c0.288,0.015,0.463-0.109,0.48-0.391c0.031-0.472,0.207-0.913,0.282-1.377c0.098-0.604,0.218-1.228,0.625-1.915
		c-0.165,1.165-0.383,2.143-0.629,3.116c-0.053,0.212-0.177,0.457,0.201,0.55c1.143,0.283,1.726-0.152,1.755-1.337
		c0.001-0.059-0.027-0.122-0.012-0.175c0.111-0.372,0.088-0.798,0.407-1.12c0.239,0.68,0.521,1.306,0.671,1.962
		c0.111,0.49,0.311,0.732,0.809,0.687c0.407-0.037,0.827,0.079,1.22-0.09c0.064-0.027,0.114-0.164,0.117-0.252
		c0.023-0.845,0.517-1.56,0.612-2.465c0.106,0.645-0.104,1.241,0.22,1.752c0.612,0.967,1.471,1.29,2.617,1.11
		c0.53-0.082,1.059-0.273,1.623-0.076c0.309,0.109,0.63,0.042,0.724-0.376c0.155-0.688,0.319-1.373,0.482-2.059
		c0.07-0.298-0.026-0.448-0.349-0.443c-0.55,0.008-1.1-0.002-1.648,0.005c-0.51,0.006-0.362,0.48-0.496,0.742
		c-0.122,0.236,0.001,0.398,0.29,0.434c0.141,0.017,0.376,0.138,0.137,0.285c-0.418,0.257-0.881,0.298-1.353,0.069
		c-0.328-0.159-0.331-0.45-0.338-0.733c-0.007-0.254,0.002-0.515,0.056-0.761c0.188-0.873,1.262-1.453,1.815-0.939
		c0.443,0.412,0.933,0.422,1.443,0.436c0.479,0.012,0.588-0.181,0.394-0.603c-0.516-1.113-1.025-1.379-2.315-1.21
		c-0.077,0.01-0.163,0.023-0.233,0c-0.562-0.184-1.017,0.087-1.5,0.307c-0.666,0.304-0.96,0.943-1.392,1.472
		c0.058-0.438,0.152-0.854,0.244-1.271c0.033-0.15,0.12-0.342-0.063-0.422c-0.45-0.192-0.94-0.143-1.383-0.026
		c-0.293,0.077-0.405,0.414-0.431,0.762c-0.033,0.46-0.083,0.929-0.31,1.351c-0.041,0.078-0.012,0.214-0.146,0.214
		c-0.109,0-0.196-0.094-0.197-0.186c-0.006-0.423-0.278-0.76-0.356-1.165c-0.063-0.322-0.199-0.736-0.442-0.893
		c-0.454-0.291-1.035-0.186-1.55-0.105c-0.398,0.062-0.392,0.478-0.437,0.805c-0.019,0.129-0.041,0.262-0.188,0.298
		c-0.146-0.08-0.146-0.193-0.119-0.315c0.185-0.834,0.18-0.842-0.652-0.828c-0.195,0.003-0.393,0.01-0.588,0.024
		c-0.182,0.015-0.368,0.057-0.396,0.276c-0.036,0.295-0.235,0.504-0.396,0.904c-0.272-0.854-0.808-1.196-1.566-1.198
		c-0.844-0.003-1.688-0.002-2.531-0.013c-0.366-0.005-0.604,0.118-0.65,0.514c-0.036,0.306-0.157,0.581-0.333,0.934
		c-0.044-0.214-0.045-0.338-0.093-0.439c-0.221-0.457-0.362-0.91-1.058-0.951c-1-0.058-1.999,0.002-2.997-0.056
		c-0.379-0.022-0.573,0.147-0.644,0.523c-0.104,0.548-0.242,1.089-0.366,1.632c-0.062,0.038-0.123,0.075-0.185,0.113
		c-0.074-1.729-1.038-2.375-2.572-2.38c-1.407-0.004-2.532,0.455-3.165,1.852c-0.129-0.337,0.105-0.604,0.053-0.795
		c-0.086-0.313,0.497-0.739-0.094-0.896c-0.403-0.107-0.857-0.043-1.287-0.023c-0.246,0.012-0.383,0.181-0.373,0.438
		c0.015,0.385-0.175,0.718-0.266,1.076c-0.063,0.246-0.239,0.288-0.449,0.27c-0.38-0.034-0.794,0.121-1.128-0.165
		c-0.093-0.078-0.039-0.22,0.034-0.322c0.19-0.268,0.174-0.599,0.273-0.894c0.058-0.174,0.019-0.297-0.157-0.384
		c-0.796-0.392-1.564,0.071-1.795,0.931c-0.185,0.686-0.151,1.444-0.615,2.166c-0.279-0.661-0.77-0.96-1.347-1.13
		c-0.331-0.098-0.678-0.143-1.008-0.243c-0.177-0.054-0.402-0.131-0.373-0.382c0.024-0.21,0.223-0.223,0.389-0.293
		c0.25-0.106,0.553-0.048,0.64,0.08c0.413,0.608,1.012,0.343,1.538,0.393c0.39,0.037,0.489-0.19,0.363-0.524
		c-0.234-0.623-0.708-0.986-1.348-1.084c-0.717-0.108-1.438-0.123-2.149,0.111c-0.792,0.261-1.281,0.896-1.24,1.669
		c0.029,0.547,0.509,1.012,1.245,1.224c0.412,0.119,0.822,0.249,1.226,0.394c0.143,0.052,0.258,0.152,0.248,0.354
		c-0.011,0.228-0.174,0.227-0.319,0.267c-0.461,0.13-0.922,0.262-1.178-0.337c-0.048-0.114-0.148-0.189-0.276-0.191
		c-0.451-0.004-0.901-0.013-1.352,0c-0.262,0.007-0.316,0.165-0.246,0.404c0.179,0.613,1.226,1.506,1.979,1.476
		c1.034-0.042,2.03-0.089,2.989-0.95c-0.202,0.735,0.054,0.833,0.551,0.815c1.159-0.042,1.16-0.016,1.393-1.175
		c0.023-0.115,0.04-0.232,0.071-0.346c0.145-0.519,0.697-0.744,1.38-0.52c0.511,0.169,0.195,0.577,0.142,0.843
		c-0.241,1.199-0.259,1.175,0.937,1.191c0.5,0.007,0.736-0.185,0.759-0.666C365.787,240.259,365.917,239.924,366.181,239.528z"/>
	<path fill="#F8DE66" d="M349.873,235.315c-0.025-0.428-0.07-0.855-0.071-1.283c-0.005-3.513-0.028-7.026,0.013-10.538
		c0.011-0.982,0.323-1.899,1.074-2.642c0.587-0.581,1.293-0.778,2.054-0.872c0.367-0.046,0.745-0.009,1.118-0.01
		c14.365-0.001,28.73,0.004,43.095-0.017c1.16-0.001,2.135,0.267,2.959,1.112c0.715,0.732,0.799,1.646,0.805,2.563
		c0.024,3.708,0.011,7.418,0.009,11.127c0,0.175-0.025,0.351-0.038,0.525c-16.673,0.003-33.345,0.006-50.018,0.009
		C350.539,235.291,350.207,235.307,349.873,235.315z M370.136,229.007c-0.635,0-1.111,0.046-1.575-0.012
		c-0.558-0.071-0.711,0.308-0.755,0.677c-0.154,1.291-0.527,2.534-0.783,3.801c-0.269,1.332-0.427,1.172,0.924,1.216
		c0.485,0.016,0.816-0.054,0.857-0.63c0.021-0.288,0.162-0.565,0.206-0.854c0.127-0.835,0.761-0.401,1.166-0.442
		c0.419-0.042,0.462,0.344,0.451,0.671c-0.009,0.253-0.073,0.506-0.074,0.759c0,0.242,0.055,0.509,0.378,0.479
		c0.486-0.045,1.267,0.262,1.393-0.166c0.179-0.604,0.251-1.379-0.055-2.01c-0.193-0.396-0.145-0.513,0.22-0.697
		c0.501-0.253,0.819-1.019,0.717-1.547c-0.136-0.701-0.495-1.001-1.188-1.155C371.335,228.945,370.653,229.054,370.136,229.007z
		 M384.224,231.292c-0.866-0.224-1.672-0.127-2.473-0.157c-0.187-0.007-0.491,0.132-0.497-0.222
		c-0.004-0.304,0.194-0.44,0.507-0.436c0.568,0.008,1.138-0.007,1.707-0.006c0.955,0.001,0.924-0.007,1.259-0.951
		c0.149-0.421,0.044-0.522-0.344-0.521c-1.412,0.002-2.825,0.008-4.238-0.002c-0.308-0.002-0.436,0.096-0.506,0.415
		c-0.353,1.585-0.733,3.165-1.116,4.743c-0.093,0.381-0.003,0.536,0.415,0.53c1.256-0.019,2.512-0.013,3.768-0.008
		c0.991,0.005,0.976,0.008,1.17-0.936c0.084-0.41-0.002-0.582-0.447-0.569c-0.725,0.022-1.452,0.009-2.178,0.004
		c-0.191-0.002-0.43,0.019-0.439-0.264c-0.01-0.284,0.202-0.358,0.438-0.362c0.548-0.008,1.1-0.033,1.647-0.001
		c0.628,0.037,1.146,0.001,1.112-0.837C384.002,231.584,384.138,231.452,384.224,231.292z M393.114,229
		c-0.515-0.095-0.955,0.053-1.326,0.674c-0.669,1.121-1.335,2.25-2.078,3.331c-0.269,0.389-0.562,0.778-0.779,1.206
		c-0.073,0.142-0.244,0.309-0.005,0.451c0.407,0.241,1.665,0.035,1.878-0.384c0.188-0.37,0.442-0.375,0.754-0.377
		c0.294-0.002,0.59,0.012,0.882-0.006c0.372-0.024,0.66,0.039,0.729,0.479c0.036,0.235,0.22,0.301,0.438,0.3
		c0.295-0.001,0.592-0.021,0.883,0.012c0.496,0.057,0.611-0.144,0.527-0.607c-0.252-1.388-0.477-2.782-0.711-4.173
		C394.156,229.004,394.157,229.004,393.114,229z M365.009,234.698c0.483-0.055,0.868,0.112,1.042-0.371
		c0.113-0.315,0.196-0.606,0.129-0.949c-0.206-1.054-0.384-2.113-0.578-3.17c-0.221-1.206-0.223-1.185-1.464-1.222
		c-0.444-0.013-0.701,0.139-0.961,0.494c-0.745,1.015-1.308,2.14-1.992,3.19c-0.341,0.523-0.69,1.042-1.014,1.575
		c-0.071,0.117-0.279,0.381,0.017,0.415c0.521,0.058,1.056,0.026,1.583-0.007c0.299-0.019,0.322-0.35,0.472-0.538
		c0.167-0.211,1.897-0.312,2.075-0.114c0.037,0.042,0.07,0.103,0.073,0.157C364.423,234.676,364.741,234.756,365.009,234.698z
		 M388.02,229c0,0.001,0,0.002,0,0.003c-0.744,0-1.489-0.001-2.232,0c-0.216,0-0.498-0.021-0.549,0.226
		c-0.081,0.384-0.092,0.787-0.086,1.182c0.002,0.119,0.19,0.09,0.307,0.089c0.294-0.004,0.588-0.017,0.881-0.002
		c0.251,0.012,0.434,0.12,0.306,0.413c-0.337,0.775-0.334,1.623-0.524,2.429c-0.379,1.607-0.392,1.29,1.056,1.345
		c0.489,0.019,0.644-0.2,0.73-0.622c0.201-0.955,0.479-1.896,0.635-2.858c0.093-0.575,0.324-0.74,0.882-0.718
		c1.048,0.04,1.036,0.008,1.239-1.005c0.077-0.379-0.046-0.495-0.41-0.487C389.509,229.01,388.764,229,388.02,229z M359.339,228.999
		c0,0.002,0,0.004,0,0.007c-0.373,0-0.746,0-1.118,0c-0.373,0-0.746,0.009-1.118-0.005c-0.289-0.012-0.46,0.056-0.551,0.378
		c-0.313,1.108-0.327,1.117,0.833,1.098c0.473-0.008,0.635,0.114,0.504,0.617c-0.267,1.023-0.48,2.059-0.714,3.09
		c-0.048,0.213-0.134,0.469,0.211,0.477c0.445,0.01,0.896,0.101,1.336-0.076c0.151-0.06,0.295-0.101,0.338-0.28
		c0.26-1.077,0.55-2.149,0.766-3.234c0.088-0.442,0.263-0.586,0.695-0.583c1.083,0.01,1.083-0.005,1.376-0.962
		c0.005-0.02,0.01-0.039,0.017-0.057c0.111-0.318,0.031-0.48-0.339-0.474C360.83,229.008,360.084,228.999,359.339,228.999z
		 M375.12,232.362c-0.204,0.081-0.364,0.058-0.543,0.024c-0.658-0.125-1.254,0.104-1.39,0.479c-0.197,0.544,0.273,1.523,0.836,1.742
		c1.922,0.749,3.54-0.17,3.991-2.171c0.212-0.94,0.22-1.927,0.638-2.827c0.175-0.376,0.114-0.696-0.449-0.618
		c-0.27,0.037-0.553,0.044-0.821,0.003c-0.425-0.065-0.596,0.129-0.683,0.511c-0.21,0.931-0.477,1.851-0.646,2.788
		c-0.058,0.316-0.246,0.566-0.284,0.88c-0.031,0.258-0.296,0.213-0.455,0.214c-0.182,0.001-0.313-0.144-0.283-0.362
		C375.057,232.834,375.083,232.642,375.12,232.362z"/>
	<path fill="#F8DE66" d="M366.181,239.528c-0.264,0.396-0.395,0.73-0.412,1.109c-0.023,0.48-0.259,0.672-0.759,0.666
		c-1.196-0.017-1.178,0.007-0.937-1.192c0.053-0.265,0.369-0.673-0.143-0.842c-0.684-0.226-1.235,0.001-1.38,0.519
		c-0.031,0.113-0.048,0.23-0.071,0.346c-0.233,1.16-0.235,1.133-1.393,1.176c-0.497,0.018-0.753-0.08-0.551-0.815
		c-0.959,0.861-1.955,0.908-2.988,0.95c-0.754,0.03-1.8-0.863-1.979-1.477c-0.07-0.238-0.017-0.396,0.245-0.404
		c0.45-0.013,0.901-0.004,1.352,0.001c0.128,0.001,0.228,0.077,0.277,0.19c0.256,0.599,0.716,0.468,1.178,0.338
		c0.145-0.041,0.308-0.04,0.319-0.268c0.009-0.201-0.105-0.301-0.249-0.353c-0.404-0.146-0.814-0.275-1.226-0.394
		c-0.735-0.212-1.215-0.677-1.245-1.225c-0.041-0.772,0.448-1.408,1.241-1.669c0.71-0.233,1.431-0.219,2.149-0.11
		c0.64,0.097,1.114,0.46,1.348,1.084c0.125,0.333,0.027,0.562-0.363,0.524c-0.526-0.05-1.125,0.216-1.538-0.393
		c-0.087-0.128-0.39-0.187-0.639-0.08c-0.166,0.07-0.365,0.083-0.389,0.292c-0.029,0.251,0.195,0.328,0.373,0.383
		c0.33,0.101,0.676,0.145,1.008,0.242c0.577,0.17,1.067,0.469,1.346,1.131c0.464-0.722,0.431-1.481,0.615-2.167
		c0.232-0.858,1-1.321,1.796-0.93c0.175,0.087,0.215,0.21,0.157,0.384c-0.099,0.295-0.083,0.626-0.273,0.893
		c-0.073,0.104-0.127,0.244-0.034,0.323c0.334,0.285,0.749,0.131,1.128,0.165c0.21,0.019,0.386-0.023,0.449-0.271
		c0.091-0.357,0.28-0.69,0.265-1.075c-0.01-0.259,0.127-0.428,0.374-0.438c0.429-0.021,0.883-0.084,1.287,0.022
		c0.591,0.157,0.008,0.584,0.094,0.896c0.052,0.189-0.182,0.458-0.053,0.795c0.632-1.396,1.757-1.855,3.165-1.852
		c1.534,0.005,2.498,0.65,2.572,2.38c0.062-0.038,0.124-0.075,0.186-0.113c0.124-0.544,0.263-1.084,0.366-1.632
		c0.071-0.376,0.265-0.546,0.644-0.524c0.997,0.058,1.996-0.002,2.997,0.057c0.695,0.04,0.838,0.494,1.058,0.95
		c0.049,0.102,0.05,0.227,0.093,0.439c0.176-0.352,0.297-0.628,0.333-0.933c0.046-0.396,0.283-0.519,0.65-0.514
		c0.844,0.011,1.688,0.01,2.531,0.012c0.759,0.003,1.294,0.345,1.566,1.199c0.161-0.4,0.359-0.609,0.396-0.905
		c0.028-0.219,0.215-0.261,0.396-0.275c0.195-0.016,0.393-0.021,0.588-0.024c0.832-0.014,0.837-0.007,0.652,0.828
		c-0.027,0.121-0.026,0.234,0.119,0.314c0.147-0.035,0.17-0.168,0.188-0.297c0.045-0.327,0.038-0.743,0.437-0.806
		c0.516-0.079,1.096-0.185,1.55,0.106c0.243,0.155,0.38,0.57,0.442,0.892c0.079,0.406,0.351,0.742,0.356,1.166
		c0.001,0.092,0.088,0.185,0.197,0.186c0.135,0,0.105-0.136,0.146-0.214c0.227-0.422,0.276-0.891,0.31-1.351
		c0.026-0.349,0.138-0.685,0.431-0.763c0.442-0.116,0.933-0.166,1.383,0.027c0.184,0.079,0.097,0.271,0.063,0.422
		c-0.092,0.416-0.187,0.831-0.244,1.27c0.432-0.527,0.726-1.167,1.392-1.471c0.483-0.22,0.939-0.491,1.5-0.307
		c0.07,0.023,0.156,0.01,0.234-0.001c1.289-0.169,1.799,0.097,2.314,1.211c0.194,0.421,0.086,0.614-0.393,0.602
		c-0.512-0.013-1.001-0.022-1.443-0.435c-0.555-0.515-1.629,0.065-1.816,0.939c-0.054,0.246-0.063,0.507-0.056,0.76
		c0.008,0.284,0.01,0.574,0.339,0.734c0.471,0.229,0.934,0.187,1.352-0.07c0.239-0.146,0.004-0.268-0.137-0.285
		c-0.289-0.035-0.412-0.196-0.29-0.434c0.135-0.261-0.014-0.735,0.496-0.742c0.55-0.006,1.099,0.003,1.648-0.005
		c0.322-0.004,0.419,0.146,0.349,0.443c-0.163,0.687-0.326,1.372-0.482,2.06c-0.094,0.418-0.414,0.484-0.724,0.376
		c-0.564-0.198-1.093-0.007-1.623,0.076c-1.146,0.18-2.005-0.145-2.617-1.111c-0.322-0.51-0.113-1.106-0.22-1.752
		c-0.096,0.906-0.589,1.621-0.612,2.466c-0.003,0.088-0.053,0.225-0.117,0.252c-0.392,0.168-0.813,0.052-1.22,0.089
		c-0.498,0.046-0.696-0.195-0.809-0.687c-0.15-0.656-0.432-1.282-0.671-1.962c-0.319,0.322-0.295,0.749-0.407,1.121
		c-0.016,0.053,0.014,0.116,0.012,0.175c-0.029,1.185-0.611,1.619-1.755,1.337c-0.378-0.093-0.254-0.339-0.201-0.551
		c0.246-0.973,0.464-1.95,0.629-3.116c-0.407,0.688-0.527,1.313-0.625,1.915c-0.075,0.465-0.251,0.905-0.281,1.378
		c-0.019,0.281-0.193,0.404-0.481,0.391c-0.274-0.014-0.549,0.002-0.823,0c-0.608-0.002-0.646-0.086-0.531-0.7
		c0.097-0.517,0.39-0.975,0.407-1.509c0.003-0.071-0.009-0.144-0.024-0.336c-0.801,1.019-1.855,1.033-2.911,0.994
		c-0.436-0.017-0.59,0.204-0.671,0.558c-0.221,0.962-0.619,1.199-1.602,0.977c-0.357-0.079-0.273-0.322-0.25-0.548
		c0.062-0.577,0.337-1.118,0.325-1.842c-0.954,0.83-2.02,0.937-3.127,0.868c-0.24-0.016-0.305,0.103-0.36,0.339
		c-0.298,1.263-0.31,1.244-1.605,1.202c-0.378-0.013-0.438-0.174-0.372-0.477c0.025-0.113,0.082-0.221,0.104-0.335
		c0.027-0.145,0.104-0.332-0.061-0.419c-0.152-0.079-0.236,0.104-0.316,0.198c-0.815,0.937-1.853,1.238-3.061,1.133
		C367.354,241.3,366.602,240.675,366.181,239.528z M368.116,239.1c-0.003,0.626,0.496,1.136,1.011,1.032
		c0.84-0.168,1.521-1.434,1.224-2.249c-0.114-0.311-0.311-0.47-0.636-0.511C368.75,237.251,368.254,237.831,368.116,239.1z
		 M379.531,237.951c-0.095,0.441,0.172,0.559,0.553,0.56c0.382,0.002,0.731-0.094,0.755-0.542c0.022-0.449-0.313-0.516-0.677-0.51
		C379.834,237.465,379.452,237.389,379.531,237.951z M374.771,238.464c0.416-0.031,0.902-0.006,0.911-0.578
		c0.008-0.419-0.385-0.392-0.693-0.43c-0.537-0.067-0.674,0.226-0.691,0.687C374.282,238.547,374.573,238.424,374.771,238.464z"/>
	<path fill="#18609C" d="M370.136,229.007c0.517,0.046,1.199-0.062,1.883,0.09c0.692,0.154,1.051,0.454,1.188,1.155
		c0.103,0.528-0.215,1.294-0.717,1.547c-0.365,0.184-0.413,0.3-0.22,0.697c0.306,0.63,0.233,1.407,0.055,2.01
		c-0.126,0.428-0.907,0.121-1.394,0.166c-0.324,0.03-0.379-0.237-0.378-0.479c0.001-0.253,0.065-0.505,0.074-0.759
		c0.011-0.327-0.031-0.713-0.452-0.671c-0.404,0.041-1.038-0.393-1.165,0.442c-0.044,0.289-0.185,0.566-0.206,0.854
		c-0.042,0.577-0.373,0.646-0.858,0.63c-1.351-0.045-1.192,0.115-0.923-1.217c0.256-1.268,0.629-2.51,0.783-3.801
		c0.044-0.369,0.197-0.748,0.755-0.677C369.025,229.054,369.501,229.007,370.136,229.007z M370.332,230.395
		c-0.276,0.027-0.689-0.14-0.775,0.345c-0.042,0.234-0.247,0.551,0.143,0.71c0.407,0.167,1.238-0.011,1.387-0.286
		C371.351,230.679,371.086,230.397,370.332,230.395z"/>
	<path fill="#18609C" d="M384.224,231.292c-0.086,0.159-0.222,0.292-0.217,0.419c0.035,0.838-0.483,0.874-1.111,0.837
		c-0.549-0.032-1.1-0.007-1.648,0.001c-0.234,0.003-0.446,0.078-0.437,0.362c0.009,0.283,0.248,0.262,0.439,0.264
		c0.726,0.006,1.453,0.019,2.178-0.003c0.444-0.014,0.531,0.159,0.446,0.568c-0.193,0.943-0.179,0.94-1.169,0.936
		c-1.256-0.005-2.513-0.011-3.768,0.007c-0.418,0.006-0.508-0.149-0.415-0.53c0.383-1.578,0.763-3.158,1.115-4.743
		c0.071-0.318,0.199-0.416,0.507-0.414c1.413,0.01,2.825,0.004,4.238,0.002c0.388-0.001,0.493,0.1,0.344,0.521
		c-0.336,0.943-0.304,0.952-1.259,0.95c-0.569-0.001-1.139,0.015-1.707,0.007c-0.313-0.004-0.511,0.132-0.507,0.436
		c0.006,0.354,0.311,0.215,0.496,0.222C382.552,231.166,383.357,231.068,384.224,231.292z"/>
	<path fill="#18609C" d="M393.114,229c1.043,0.004,1.041,0.005,1.192,0.905c0.234,1.392,0.459,2.785,0.711,4.173
		c0.084,0.464-0.032,0.665-0.528,0.608c-0.291-0.033-0.588-0.014-0.882-0.013c-0.218,0.001-0.401-0.065-0.438-0.3
		c-0.068-0.44-0.356-0.502-0.729-0.479c-0.293,0.019-0.589,0.004-0.883,0.006c-0.311,0.002-0.565,0.008-0.753,0.377
		c-0.214,0.419-1.472,0.626-1.878,0.384c-0.239-0.142-0.068-0.309,0.005-0.451c0.218-0.428,0.511-0.816,0.778-1.206
		c0.744-1.081,1.409-2.209,2.079-3.331C392.159,229.053,392.6,228.905,393.114,229z M392.891,232.102
		c-0.096-0.239,0.11-0.668-0.194-0.763c-0.341-0.104-0.095,0.451-0.374,0.538c-0.033,0.011-0.063,0.048-0.083,0.08
		c-0.11,0.181-0.273,0.378-0.104,0.579c0.136,0.159,0.359,0.114,0.552,0.069C392.97,232.539,392.879,232.312,392.891,232.102z"/>
	<path fill="#18609C" d="M365.009,234.698c-0.269,0.058-0.586-0.022-0.618-0.54c-0.004-0.054-0.037-0.115-0.074-0.157
		c-0.178-0.197-1.908-0.097-2.075,0.114c-0.149,0.188-0.173,0.519-0.472,0.538c-0.527,0.034-1.061,0.065-1.583,0.007
		c-0.295-0.032-0.087-0.297-0.017-0.414c0.323-0.534,0.672-1.052,1.013-1.576c0.684-1.05,1.247-2.175,1.992-3.19
		c0.261-0.355,0.517-0.507,0.961-0.494c1.241,0.036,1.244,0.016,1.464,1.222c0.193,1.057,0.371,2.116,0.578,3.17
		c0.067,0.343-0.016,0.633-0.129,0.949C365.877,234.811,365.493,234.643,365.009,234.698z M364.112,231.91
		c-0.015-0.102,0.091-0.459-0.131-0.513c-0.286-0.069-0.419,0.251-0.507,0.511c-0.024,0.072-0.08,0.134-0.1,0.206
		c-0.044,0.164-0.351,0.231-0.223,0.422c0.112,0.169,0.356,0.099,0.549,0.116C364.22,232.7,364.123,232.335,364.112,231.91z"/>
	<path fill="#18609C" d="M388.02,229c0.744,0,1.488,0.01,2.232-0.004c0.365-0.007,0.487,0.108,0.41,0.487
		c-0.203,1.013-0.191,1.045-1.239,1.005c-0.558-0.022-0.789,0.144-0.882,0.718c-0.155,0.961-0.434,1.902-0.634,2.858
		c-0.088,0.421-0.241,0.64-0.731,0.622c-1.447-0.056-1.434,0.262-1.056-1.345c0.19-0.806,0.188-1.654,0.525-2.429
		c0.128-0.292-0.056-0.401-0.307-0.413c-0.292-0.014-0.587-0.001-0.881,0.003c-0.115,0.001-0.305,0.03-0.306-0.089
		c-0.006-0.395,0.004-0.798,0.085-1.182c0.051-0.247,0.333-0.225,0.549-0.226c0.744-0.001,1.488,0,2.233,0
		C388.02,229.002,388.02,229.001,388.02,229z"/>
	<path fill="#18609C" d="M359.339,228.999c0.746,0,1.491,0.009,2.236-0.004c0.37-0.006,0.45,0.156,0.339,0.474
		c-0.006,0.018-0.011,0.037-0.017,0.057c-0.293,0.958-0.293,0.973-1.376,0.962c-0.432-0.003-0.607,0.14-0.695,0.583
		c-0.216,1.086-0.505,2.157-0.766,3.235c-0.043,0.178-0.187,0.219-0.337,0.28c-0.44,0.177-0.892,0.086-1.336,0.075
		c-0.345-0.008-0.26-0.264-0.211-0.477c0.235-1.031,0.447-2.068,0.715-3.09c0.131-0.503-0.032-0.625-0.504-0.617
		c-1.159,0.02-1.145,0.011-0.833-1.098c0.091-0.322,0.262-0.39,0.551-0.378c0.372,0.015,0.745,0.005,1.118,0.005
		c0.373,0,0.746,0,1.119,0C359.339,229.003,359.339,229.001,359.339,228.999z"/>
	<path fill="#18609C" d="M375.12,232.362c-0.038,0.28-0.063,0.472-0.09,0.663c-0.029,0.219,0.102,0.364,0.283,0.362
		c0.158-0.001,0.424,0.043,0.454-0.214c0.038-0.314,0.227-0.564,0.285-0.88c0.17-0.938,0.437-1.857,0.646-2.787
		c0.087-0.382,0.257-0.576,0.682-0.512c0.269,0.041,0.552,0.034,0.822-0.003c0.563-0.078,0.623,0.242,0.448,0.619
		c-0.418,0.899-0.425,1.886-0.638,2.827c-0.451,2-2.069,2.92-3.99,2.171c-0.563-0.22-1.034-1.198-0.837-1.742
		c0.135-0.375,0.732-0.603,1.39-0.479C374.756,232.42,374.917,232.442,375.12,232.362z"/>
	<path fill="#18609C" d="M368.116,239.1c0.138-1.269,0.634-1.849,1.599-1.728c0.325,0.041,0.522,0.2,0.636,0.511
		c0.297,0.815-0.384,2.081-1.224,2.249C368.612,240.235,368.113,239.726,368.116,239.1z"/>
	<path fill="#18609C" d="M379.531,237.951c-0.079-0.563,0.303-0.487,0.632-0.492c0.362-0.006,0.699,0.061,0.676,0.51
		c-0.023,0.448-0.372,0.544-0.754,0.542C379.703,238.51,379.437,238.393,379.531,237.951z"/>
	<path fill="#18609C" d="M374.771,238.464c-0.198-0.04-0.489,0.083-0.474-0.321c0.017-0.461,0.154-0.755,0.691-0.687
		c0.309,0.038,0.701,0.011,0.694,0.43C375.673,238.458,375.187,238.433,374.771,238.464z"/>
	<path fill="#F8DE66" d="M370.332,230.395c0.754,0.003,1.019,0.284,0.755,0.769c-0.15,0.275-0.98,0.453-1.388,0.286
		c-0.389-0.159-0.185-0.476-0.143-0.71C369.643,230.255,370.056,230.422,370.332,230.395z"/>
	<path fill="#F8DE66" d="M392.891,232.102c-0.013,0.21,0.079,0.437-0.204,0.502c-0.192,0.045-0.416,0.091-0.552-0.069
		c-0.169-0.2-0.007-0.398,0.104-0.578c0.021-0.032,0.051-0.07,0.083-0.08c0.279-0.087,0.033-0.642,0.374-0.538
		C393.001,231.434,392.795,231.863,392.891,232.102z"/>
	<path fill="#F8DE66" d="M364.112,231.91c0.01,0.425,0.108,0.789-0.413,0.743c-0.192-0.017-0.437,0.053-0.549-0.116
		c-0.127-0.192,0.179-0.258,0.223-0.422c0.02-0.072,0.075-0.134,0.1-0.206c0.088-0.261,0.221-0.58,0.507-0.512
		C364.203,231.451,364.097,231.808,364.112,231.91z"/>
</g>
</svg>
